<svg xmlns="http://www.w3.org/2000/svg" xmlns:xlink="http://www.w3.org/1999/xlink" viewBox="0 0 1901 581"><defs><style>.cls-1,.cls-10,.cls-11,.cls-12,.cls-13,.cls-14,.cls-15,.cls-16,.cls-17,.cls-18,.cls-19,.cls-2,.cls-20,.cls-21,.cls-3,.cls-4,.cls-5,.cls-6,.cls-7,.cls-8,.cls-9{stroke-miterlimit:10;}.cls-1{fill:url(#Pewter_Radial);stroke:url(#Steel_Radial);}.cls-2,.cls-4{stroke-width:0;}.cls-2{fill:url(#Steel_Radial-2);stroke:url(#Steel_Radial-3);}.cls-3{fill:url(#Pewter_Radial-2);stroke:url(#Steel_Radial-4);}.cls-4{fill:url(#Steel_Radial-5);stroke:url(#Steel_Radial-6);}.cls-10,.cls-14,.cls-15,.cls-16,.cls-17,.cls-18,.cls-19,.cls-20,.cls-5,.cls-6,.cls-7,.cls-9{fill:none;}.cls-10,.cls-11,.cls-12,.cls-13,.cls-14,.cls-15,.cls-16,.cls-17,.cls-18,.cls-21,.cls-5,.cls-8,.cls-9{stroke-width:10px;}.cls-5{stroke:url(#Brass_Radial);}.cls-19,.cls-20,.cls-6{stroke-width:12px;}.cls-6{stroke:url(#radial-gradient);}.cls-7{stroke-width:13px;stroke:url(#linear-gradient);}.cls-8{fill:url(#radial-gradient-2);stroke:url(#linear-gradient-2);}.cls-9{stroke:url(#Brass_Radial-2);}.cls-10{stroke:url(#Brass_Radial-3);}.cls-11,.cls-12,.cls-13,.cls-21{fill:#333;}.cls-11{stroke:url(#Brass_Radial-4);}.cls-12{stroke:url(#Brass_Radial-5);}.cls-13{stroke:url(#Brass_Radial-6);}.cls-14{stroke:url(#linear-gradient-3);}.cls-15{stroke:url(#linear-gradient-4);}.cls-16{stroke:url(#linear-gradient-5);}.cls-17{stroke:url(#linear-gradient-6);}.cls-18{stroke:url(#linear-gradient-7);}.cls-19{stroke:url(#linear-gradient-8);}.cls-20{stroke:url(#linear-gradient-9);}.cls-21{stroke:url(#Steel_Radial-7);}</style><radialGradient id="Pewter_Radial" cx="72.13" cy="99.87" r="71.75" gradientUnits="userSpaceOnUse"><stop offset="0.01" stop-color="#bbbcc2"/><stop offset="0.33" stop-color="#b6b6b3"/><stop offset="0.35" stop-color="#b6b5b2"/><stop offset="0.5" stop-color="#a7a9a9"/><stop offset="0.67" stop-color="#91989c"/><stop offset="1" stop-color="#71797d"/></radialGradient><radialGradient id="Steel_Radial" cx="72.13" cy="99.87" r="72.25" gradientUnits="userSpaceOnUse"><stop offset="0" stop-color="#eeebe9"/><stop offset="0" stop-color="#f9f8f8"/><stop offset="0" stop-color="#fff"/><stop offset="0.15" stop-color="#f0f0f0"/><stop offset="0.42" stop-color="#c9c9c9"/><stop offset="0.52" stop-color="#bababa"/><stop offset="0.6" stop-color="#b0b1b1"/><stop offset="0.73" stop-color="#969899"/><stop offset="0.89" stop-color="#6c7171"/><stop offset="1" stop-color="#4c5354"/></radialGradient><radialGradient id="Steel_Radial-2" cx="-81.19" cy="1436.42" r="21.05" gradientTransform="matrix(0.77, -0.64, -0.64, -0.77, 1057.67, 1148.01)" xlink:href="#Steel_Radial"/><radialGradient id="Steel_Radial-3" cx="72.16" cy="99.84" r="21.05" xlink:href="#Steel_Radial"/><radialGradient id="Pewter_Radial-2" cx="1828.87" cy="99.87" r="71.75" xlink:href="#Pewter_Radial"/><radialGradient id="Steel_Radial-4" cx="1828.87" cy="99.87" r="72.25" xlink:href="#Steel_Radial"/><radialGradient id="Steel_Radial-5" cx="1264.54" cy="307.21" r="21.05" gradientTransform="matrix(0.77, -0.64, -0.64, -0.77, 1057.67, 1148.01)" xlink:href="#Steel_Radial"/><radialGradient id="Steel_Radial-6" cx="1828.9" cy="99.84" r="21.05" xlink:href="#Steel_Radial"/><radialGradient id="Brass_Radial" cx="1640.08" cy="441" r="136.29" gradientTransform="translate(92.98 77.46) scale(0.52 0.82)" gradientUnits="userSpaceOnUse"><stop offset="0.18" stop-color="#f8f0e4"/><stop offset="0.59" stop-color="#f2d78f"/><stop offset="1" stop-color="#c58511"/></radialGradient><radialGradient id="radial-gradient" cx="950.5" cy="88" r="200.13" gradientUnits="userSpaceOnUse"><stop offset="0" stop-color="#eeebe9"/><stop offset="0" stop-color="#f9f8f8"/><stop offset="0" stop-color="#fff"/><stop offset="0.19" stop-color="#fcfcfc"/><stop offset="0.33" stop-color="#f3f3f3"/><stop offset="0.45" stop-color="#e3e3e3"/><stop offset="0.56" stop-color="#cdcdcd"/><stop offset="0.63" stop-color="#bababa"/><stop offset="0.72" stop-color="#b7b7b7"/><stop offset="0.79" stop-color="#adaeae"/><stop offset="0.85" stop-color="#9c9e9e"/><stop offset="0.91" stop-color="#848788"/><stop offset="0.96" stop-color="#656b6b"/><stop offset="1" stop-color="#4c5354"/></radialGradient><linearGradient id="linear-gradient" x1="1809.5" y1="99.5" x2="1209.5" y2="99.5" gradientUnits="userSpaceOnUse"><stop offset="0" stop-color="#7d8487"/><stop offset="0.12" stop-color="#8c9192"/><stop offset="0.34" stop-color="#b3b2af"/><stop offset="0.35" stop-color="#b6b5b2"/><stop offset="0.5" stop-color="#a7a9a9"/><stop offset="0.67" stop-color="#91989c"/><stop offset="1" stop-color="#4c5354"/></linearGradient><radialGradient id="radial-gradient-2" cx="388" cy="100" r="208.95" gradientTransform="translate(0.31)" xlink:href="#Steel_Radial"/><linearGradient id="linear-gradient-2" x1="92.5" y1="100" x2="683.5" y2="100" gradientTransform="translate(0.31)" gradientUnits="userSpaceOnUse"><stop offset="0.01" stop-color="#7e8588"/><stop offset="0.12" stop-color="#8d9293"/><stop offset="0.34" stop-color="#b4b3b0"/><stop offset="0.35" stop-color="#b6b5b2"/><stop offset="0.5" stop-color="#a7a9a9"/><stop offset="0.67" stop-color="#91989c"/><stop offset="1" stop-color="#4c5354"/></linearGradient><radialGradient id="Brass_Radial-2" cx="2743.69" cy="441" r="136.29" xlink:href="#Brass_Radial"/><radialGradient id="Brass_Radial-3" cx="538.37" cy="441" r="136.29" xlink:href="#Brass_Radial"/><radialGradient id="Brass_Radial-4" cx="538.84" cy="552.61" r="136.29" xlink:href="#Brass_Radial"/><radialGradient id="Brass_Radial-5" cx="1641.32" cy="552.61" r="136.29" xlink:href="#Brass_Radial"/><radialGradient id="Brass_Radial-6" cx="2743.81" cy="552.61" r="136.29" xlink:href="#Brass_Radial"/><linearGradient id="linear-gradient-3" x1="950" y1="170.5" x2="950" y2="389.5" gradientTransform="matrix(1, 0, 0, 0.55, 0.49, 177.62)" gradientUnits="userSpaceOnUse"><stop offset="0" stop-color="#e9e9e9"/><stop offset="0.59" stop-color="#c68412"/><stop offset="1" stop-color="#f5e2b4"/></linearGradient><linearGradient id="linear-gradient-4" x1="379.01" y1="284.5" x2="689.99" y2="284.5" gradientTransform="matrix(1.01, 0.02, -0.03, 1, 0.49, -12.11)" gradientUnits="userSpaceOnUse"><stop offset="0" stop-color="#f4e1b0"/><stop offset="0.25" stop-color="#d9ab55"/><stop offset="0.43" stop-color="#c68412"/><stop offset="1" stop-color="#4c5354"/></linearGradient><linearGradient id="linear-gradient-5" x1="1369.5" y1="166.43" x2="1369.5" y2="397.57" gradientUnits="userSpaceOnUse"><stop offset="0.18" stop-color="#4c5354"/><stop offset="0.59" stop-color="#c68412"/><stop offset="1" stop-color="#f5e2b3"/></linearGradient><linearGradient id="linear-gradient-6" x1="467.5" y1="437" x2="856.5" y2="437" gradientUnits="userSpaceOnUse"><stop offset="0" stop-color="#c68412"/><stop offset="0.31" stop-color="#e1b96d"/><stop offset="0.54" stop-color="#f5e2b3"/><stop offset="1" stop-color="#c68412"/></linearGradient><linearGradient id="linear-gradient-7" x1="1042.5" x2="1431.5" xlink:href="#linear-gradient-6"/><linearGradient id="linear-gradient-8" x1="81.34" y1="255" x2="378.66" y2="255" gradientUnits="userSpaceOnUse"><stop offset="0" stop-color="#eeebe9"/><stop offset="0" stop-color="#dfdedc"/><stop offset="0" stop-color="#b8baba"/><stop offset="0" stop-color="#7a8284"/><stop offset="0" stop-color="#70797c"/><stop offset="0.15" stop-color="#737c7e"/><stop offset="0.27" stop-color="#7c8486"/><stop offset="0.36" stop-color="#8c9294"/><stop offset="0.45" stop-color="#a2a5a6"/><stop offset="0.53" stop-color="#bababa"/><stop offset="0.67" stop-color="#bdbcb9"/><stop offset="0.79" stop-color="#c7c2b5"/><stop offset="0.89" stop-color="#d8ccae"/><stop offset="1" stop-color="#f0daa5"/><stop offset="1" stop-color="#f1dba5"/></linearGradient><linearGradient id="linear-gradient-9" x1="1521.31" y1="253" x2="1816.69" y2="253" gradientTransform="matrix(1, 0, -0.01, 1, -1.09, -4.87)" gradientUnits="userSpaceOnUse"><stop offset="0" stop-color="#eeebe9"/><stop offset="0" stop-color="#efe8da"/><stop offset="0" stop-color="#f2dfb3"/><stop offset="0" stop-color="#f3ddaa"/><stop offset="0.21" stop-color="#f0dbab"/><stop offset="0.35" stop-color="#e7d5ad"/><stop offset="0.48" stop-color="#d7ccb2"/><stop offset="0.6" stop-color="#c1beb8"/><stop offset="0.63" stop-color="#bababa"/><stop offset="0.73" stop-color="#b7b7b7"/><stop offset="0.81" stop-color="#adaeaf"/><stop offset="0.89" stop-color="#9c9fa1"/><stop offset="0.95" stop-color="#848b8d"/><stop offset="1" stop-color="#70797c"/></linearGradient><radialGradient id="Steel_Radial-7" cx="950.5" cy="218" r="140.83" xlink:href="#Steel_Radial"/></defs><g id="Layer_2" data-name="Layer 2"><g id="Layer_3" data-name="Layer 3"><path class="cls-1" d="M22.44,150.18l2.83,3.37c4.4,4.76,10,7.73,15.57,10.85,3.07,1.72,5.57,2.55,6.62-2,.37-1.58,1.32-1.84,2.83-1.29A59.41,59.41,0,0,0,70.54,165c1.71,0,2,.95,2.19,2.38.51,4.5.62,4.5,5.25,4.28,7.1-.34,13.74-2.67,20.45-4.69,2.2-.66,2.81-2.11,1.83-4.1-1.22-2.46-.4-3.8,2-4.9,5-2.31,9.23-5.7,13.34-9.3,3.08-2.7,3.13-2.64,6.45-.08a2.86,2.86,0,0,0,1.42.6l2.89-2.42c5.31-4.93,8.47-11.29,11.67-17.61,1.5-3,1.39-3.45-1.65-4.67-2.1-.84-2.62-1.9-1.88-4.07a57.22,57.22,0,0,0,3.4-19.7c0-1.67.64-2.39,2.31-2.68,3.44-.61,3.77-1.19,3.54-4.59-.48-7.2-2.91-13.9-5.25-20.62-.73-2.08-2.06-3.13-4.35-2-1.68.8-2.79.14-3.56-1.41a55.83,55.83,0,0,0-9.46-13.23c-1.89-2-2.77-3.88-.53-6.15a2.49,2.49,0,0,0,.51-1.47l-.4-.48c-1.16-.35-1.51-1.53-2.31-2.25-4.73-6-11.68-8.65-18.17-12-1.58-.82-2.93-.09-3.59,1.47-1,2.27-2.5,2.47-4.58,1.74A54.32,54.32,0,0,0,76.3,34.21c-2.1-.09-3.32-.77-3.31-3.14,0-2.19-1.34-3.11-3.5-3.07-7.85.14-15.3,2.27-22.7,4.59-2,.63-2.2,2.15-1.39,3.78,1.08,2.18.15,3.14-1.8,4.05a53.2,53.2,0,0,0-13.4,8.65c-2.1,1.89-4,3.06-6.37.62-.36-.37-1-.34-1.49-.42L19,52.1c-5,4.63-8.31,10.4-11.39,16.34-1.65,3.17-1.65,3.38,1.51,5.06,1.72.91,2.22,2,1.53,3.79a60.19,60.19,0,0,0-3.68,19c-.11,2.43-1,3.73-3.62,3.42-2-.22-2.83.82-2.82,2.81.06,8.19,2.31,15.92,5.06,23.53.74,2.06,2.43,1.75,3.93,1.05,2.19-1,3.32-.45,4.36,1.78A56,56,0,0,0,23,142.38c2.71,3.08,2.65,3.14,0,6.38A2.87,2.87,0,0,0,22.44,150.18Z"/><circle class="cls-2" cx="72.16" cy="99.84" r="21.05"/><path class="cls-3" d="M1779.18,150.18l2.83,3.37c4.39,4.76,10,7.73,15.56,10.85,3.07,1.72,5.58,2.55,6.63-2,.36-1.58,1.31-1.84,2.83-1.29a59.37,59.37,0,0,0,20.25,3.86c1.7,0,2,.95,2.19,2.38.51,4.5.61,4.5,5.24,4.28,7.11-.34,13.74-2.67,20.45-4.69,2.2-.66,2.82-2.11,1.83-4.1-1.22-2.46-.4-3.8,2-4.9,5-2.31,9.24-5.7,13.35-9.3,3.07-2.7,3.13-2.64,6.44-.08a2.9,2.9,0,0,0,1.42.6l2.89-2.42c5.32-4.93,8.47-11.29,11.67-17.61,1.5-3,1.39-3.45-1.65-4.67-2.09-.84-2.62-1.9-1.88-4.07a56.75,56.75,0,0,0,3.4-19.7c0-1.67.65-2.39,2.32-2.68,3.43-.61,3.76-1.19,3.53-4.59-.48-7.2-2.91-13.9-5.25-20.62-.72-2.08-2-3.13-4.35-2-1.68.8-2.79.14-3.55-1.41a55.58,55.58,0,0,0-9.47-13.23c-1.88-2-2.76-3.88-.53-6.15a2.57,2.57,0,0,0,.52-1.47l-.41-.48c-1.15-.35-1.51-1.53-2.31-2.25-4.73-6-11.68-8.65-18.16-12-1.59-.82-2.94-.09-3.6,1.47-1,2.27-2.49,2.47-4.58,1.74A54.26,54.26,0,0,0,1833,34.21c-2.1-.09-3.32-.77-3.31-3.14,0-2.19-1.34-3.11-3.49-3.07-7.86.14-15.3,2.27-22.7,4.59-2,.63-2.21,2.15-1.4,3.78,1.08,2.18.16,3.14-1.79,4.05a53.25,53.25,0,0,0-13.41,8.65c-2.09,1.89-4,3.06-6.36.62-.37-.37-1-.34-1.49-.42l-3.38,2.83c-5,4.63-8.3,10.4-11.39,16.34-1.65,3.17-1.64,3.38,1.51,5.06,1.72.91,2.22,2,1.53,3.79a60.75,60.75,0,0,0-3.68,19c-.1,2.43-1,3.73-3.61,3.42-2-.22-2.84.82-2.83,2.81.07,8.19,2.31,15.92,5.06,23.53.74,2.06,2.44,1.75,3.94,1.05,2.19-1,3.32-.45,4.35,1.78a56.57,56.57,0,0,0,9.17,13.45c2.72,3.08,2.65,3.14,0,6.38A2.79,2.79,0,0,0,1779.18,150.18Z"/><circle class="cls-4" cx="1828.9" cy="99.84" r="21.05"/></g><g id="Layer_4" data-name="Layer 4"><rect class="cls-5" x="856.85" y="393.5" width="186" height="91"/><rect class="cls-6" x="687.5" y="6" width="526" height="164"/><line class="cls-7" x1="1809.5" y1="99.5" x2="1209.5" y2="99.5"/><line class="cls-8" x1="92.5" y1="100" x2="681.5" y2="100"/><rect class="cls-9" x="1433.44" y="393.5" width="186" height="91"/><rect class="cls-10" x="281.26" y="393.5" width="186" height="91"/><rect class="cls-11" x="281.5" y="485" width="186" height="91"/><rect class="cls-12" x="857.5" y="485" width="186" height="91"/><rect class="cls-13" x="1433.5" y="485" width="186" height="91"/><line class="cls-14" x1="950.51" y1="391" x2="950.5" y2="271"/><line class="cls-15" x1="374.5" y1="394" x2="687" y2="170.5"/><line class="cls-16" x1="1526" y1="393.5" x2="1213" y2="170.5"/><line class="cls-17" x1="467.5" y1="437" x2="856.5" y2="437"/><line class="cls-18" x1="1042.5" y1="437" x2="1431.5" y2="437"/><line class="cls-19" x1="374.5" y1="394" x2="85.5" y2="116"/><line class="cls-20" x1="1525.5" y1="393" x2="1815.5" y2="113"/><rect class="cls-21" x="763.8" y="169" width="373.39" height="98"/></g></g></svg>