<svg xmlns="http://www.w3.org/2000/svg" xmlns:xlink="http://www.w3.org/1999/xlink" viewBox="0 0 798.24 800.83"><defs><style>.cls-1{fill:#333;stroke:#000;stroke-miterlimit:10;}.cls-2{fill:url(#Brass_Radial);}.cls-3{fill:url(#Brass_Radial-2);}.cls-4{fill:url(#Brass_Radial-3);}.cls-5{fill:url(#Brass_Radial-4);}.cls-6{fill:url(#Brass_Radial-5);}.cls-7{fill:url(#Brass_Radial-6);}.cls-8{fill:url(#Brass_Radial-7);}.cls-9{fill:url(#Brass_Radial-8);}.cls-10{fill:url(#Brass_Radial-9);}.cls-11{fill:url(#Brass_Radial-10);}.cls-12{fill:url(#Brass_Radial-11);}</style><radialGradient id="Brass_Radial" cx="-37.47" cy="958.21" r="117.15" gradientTransform="matrix(0.77, -0.64, -0.64, -0.77, 1043.92, 1110.21)" gradientUnits="userSpaceOnUse"><stop offset="0.18" stop-color="#f8f0e4"/><stop offset="0.59" stop-color="#f2d78f"/><stop offset="1" stop-color="#c58511"/></radialGradient><radialGradient id="Brass_Radial-2" cx="-1442.86" cy="-329.1" r="40.8" gradientTransform="translate(1648.62 493.18) rotate(-16.84)" xlink:href="#Brass_Radial"/><radialGradient id="Brass_Radial-3" cx="-1434.99" cy="-274.59" r="42.45" gradientTransform="translate(624.09 -740.77) rotate(-90)" xlink:href="#Brass_Radial"/><radialGradient id="Brass_Radial-4" cx="-1265.1" cy="-320.95" r="47.32" gradientTransform="translate(-638.09 128.64) rotate(-170)" xlink:href="#Brass_Radial"/><radialGradient id="Brass_Radial-5" cx="-1041.7" cy="-176.15" r="39.45" gradientTransform="translate(159.26 1421.83) rotate(110)" xlink:href="#Brass_Radial"/><radialGradient id="Brass_Radial-6" cx="-1046.01" cy="174.8" r="45.44" gradientTransform="matrix(0.87, 0.5, -0.5, 0.87, 1677.65, 668.61)" xlink:href="#Brass_Radial"/><radialGradient id="Brass_Radial-7" cx="-1353.29" cy="377.49" r="42.95" gradientTransform="matrix(0.64, -0.77, 0.77, 0.64, 1124.82, -1133.54)" xlink:href="#Brass_Radial"/><radialGradient id="Brass_Radial-8" cx="-1661.8" cy="223.89" r="47.67" gradientTransform="matrix(-0.67, -0.74, 0.74, -0.67, -923.95, -979.83)" xlink:href="#Brass_Radial"/><radialGradient id="Brass_Radial-9" cx="-1640.36" cy="104.68" r="44.68" gradientTransform="matrix(-0.42, 0.91, 0.91, 0.42, -605.61, 1655.95)" xlink:href="#Brass_Radial"/><radialGradient id="Brass_Radial-10" cx="-1613.17" cy="-240.76" r="42.02" gradientTransform="matrix(0.34, 0.94, -0.94, 0.34, 434.85, 1996.16)" xlink:href="#Brass_Radial"/><radialGradient id="Brass_Radial-11" cx="222.12" cy="253.2" r="350.83" gradientTransform="matrix(-0.17, -0.98, -0.98, 0.17, 687.54, 575.64)" xlink:href="#Brass_Radial"/></defs><g id="Layer_2" data-name="Layer 2"><g id="Layer_1-2" data-name="Layer 1"><path class="cls-1" d="M122.61,680.4l15.75,18.77c24.45,26.48,55.81,43,86.63,60.36,17,9.6,31,14.17,36.85-11,2-8.78,7.31-10.26,15.76-7.2,36.36,13.19,73.78,21.46,112.66,21.53,9.5,0,11.29,5.27,12.2,13.24,2.83,25,3.42,25,29.2,23.79,39.52-1.9,76.43-14.87,113.77-26.1,12.26-3.69,15.69-11.75,10.2-22.81-6.78-13.67-2.22-21.13,10.91-27.24C594.22,710.88,617.92,692,640.8,672c17.11-15,17.4-14.68,35.85-.43a16.36,16.36,0,0,0,7.92,3.36l16.09-13.5c29.57-27.41,47.13-62.8,64.93-98,8.36-16.52,7.74-19.17-9.2-26-11.64-4.67-14.57-10.59-10.43-22.67,12.14-35.45,19.66-71.89,18.89-109.62-.19-9.28,3.6-13.29,12.9-14.93,19.09-3.37,21-6.58,19.68-25.53-2.69-40-16.19-77.33-29.23-114.72-4-11.59-11.44-17.46-24.19-11.37-9.36,4.46-15.56.78-19.79-7.87-13.47-27.46-32.05-51.36-52.68-73.6-10.49-11.3-15.38-21.57-2.94-34.24,2-2.09,2.43-5.23,2.86-8.13l-2.25-2.68c-6.43-2-8.4-8.51-12.85-12.51-26.32-33.41-65-48.16-101.1-66.75-8.82-4.55-16.32-.5-20,8.2-5.34,12.63-13.87,13.72-25.5,9.64-28.27-9.91-57.64-14.3-87.46-15.6-11.68-.51-18.48-4.31-18.43-17.49C403.92,5.41,396.43.3,384.42.51c-43.7.75-85.12,12.62-126.32,25.56-11.09,3.48-12.25,12-7.76,21,6,12.16.88,17.51-10,22.55-27,12.57-52.48,28.08-74.62,48.13-11.65,10.54-22,17-35.4,3.48-2-2-5.43-1.9-8.3-2.35l-18.77,15.75c-27.68,25.74-46.23,57.86-63.4,90.91-9.17,17.66-9.15,18.84,8.4,28.14,9.59,5.08,12.37,11,8.54,21.12-13,34.12-19,69.68-20.51,106-.57,13.52-5.26,20.78-20.09,19.07C5.2,398.58.42,404.4.5,415.44c.35,45.61,12.84,88.6,28.13,131,4.15,11.49,13.57,9.72,21.91,5.85,12.19-5.64,18.49-2.53,24.23,9.89,12.79,27.64,30.86,52,51,74.84,15.13,17.16,14.76,17.5.21,35.53A15.82,15.82,0,0,0,122.61,680.4Z"/><circle class="cls-2" cx="399.29" cy="400.27" r="117.15"/><path class="cls-3" d="M213.56,623.22l-19,16.53-5-5.81,2.32-2a5.72,5.72,0,0,0,.57-8.1l-47-54.1a5.75,5.75,0,0,0-8.1-.57l-2.32,2-5-5.7,12.36-10.75,55.75,64.14a5.74,5.74,0,0,0,8.09.57l2.33-2Z"/><path class="cls-4" d="M332.68,666a35.81,35.81,0,0,1,16.86,8.35,157.31,157.31,0,0,1,16.63,17q12.7,15.23,22.25,20.92l3.53-17A5.19,5.19,0,0,0,391,691a5.68,5.68,0,0,0-3.58-2.39l-5.34-1.11,1.53-7.4L402.16,684,394.06,723l-4.22-1.74a47.09,47.09,0,0,1-12.37-7.56,92.43,92.43,0,0,1-10.06-9.38q-3.78-4.22-9.6-11.29Q343.76,676,331.15,673.39a18.39,18.39,0,0,0-14.45,2.79,18.6,18.6,0,0,0-8.23,12.1,17.92,17.92,0,0,0,.19,8q1.23,5.83,8.35,7.31l-1.53,7.4-18.64-3.86,1.53-7.41,3.56.74a25.92,25.92,0,0,1-.83-13.9,25.52,25.52,0,0,1,11.55-16.76A25.81,25.81,0,0,1,332.68,666Z"/><path class="cls-5" d="M500.46,665.9l4.32-1.47a39.9,39.9,0,0,1,27.79.54,32.14,32.14,0,0,1,2.77-21.43q5.1-10.18,16.92-16.87a36.22,36.22,0,0,1,26.17-1.92A33.37,33.37,0,0,1,599.25,641a35.09,35.09,0,0,1,5,18.75l-8.16,4.61a28.46,28.46,0,0,0-3.31-19.52,26.85,26.85,0,0,0-16-12.72,28.19,28.19,0,0,0-20.6,1.1,33.09,33.09,0,0,0-12.56,11.92q-4.27,7.24-4.49,13.39a19.21,19.21,0,0,0,2.12,10.3L543,672l-6.22,3.52a33,33,0,0,0-25-5l10.12,17.92a5.37,5.37,0,0,0,3.39,2.59,5.55,5.55,0,0,0,4.36-.54l4.88-2.75,3.72,6.58-16.46,9.3Z"/><path class="cls-6" d="M673.25,448l23.7,8.55-2.61,7.24-2.77-1a5.73,5.73,0,0,0-7.35,3.45l-4.42,12.24,33.71,12.17-57.08,55.9-8.17-3-8.43-3,2.57-7.11,2.9,1a5.73,5.73,0,0,0,7.35-3.45L670,483l-7.63-2.76,2.56-7.11,7.64,2.76L677,463.66a5.72,5.72,0,0,0-3.45-7.34l-2.9-1.05Zm4,37.6L660.51,532l39.11-38.28Z"/><path class="cls-7" d="M669.85,314.26a35.85,35.85,0,0,1,21.17-68l3.27,8.64a27.13,27.13,0,0,0-19.18-.07,29.38,29.38,0,0,0-16.17,14.65q-5.41,10.59-1,22.24a27.27,27.27,0,0,0,15,15.72,27.54,27.54,0,0,0,21.77.74,36.29,36.29,0,0,0,14.89-10.87l1.16,41-29.85,11.3-6.69-17.67,7.2-2.73,2,5.24a6.13,6.13,0,0,0,2.77,3.37,5.14,5.14,0,0,0,4.37.07l12.57-4.76-.64-20.27a37.3,37.3,0,0,1-5.09,2.37A34.81,34.81,0,0,1,669.85,314.26Z"/><path class="cls-8" d="M565.25,156q-7,11.81-22,15.79t-27.37-3.36q-12.42-7.33-16.34-21.87A34.42,34.42,0,0,1,503.35,119,34.89,34.89,0,0,1,525,102.65a34.08,34.08,0,0,1,27.41,3.87,35.52,35.52,0,0,1,12.85,12.65l26.23,44.17L587,170.81,569.94,142A34.21,34.21,0,0,1,565.25,156Zm-46.09,5.57a28.93,28.93,0,0,0,39.68-9.85A28.86,28.86,0,0,0,562.28,131q-2.12-11.26-13.44-18A27.87,27.87,0,0,0,527.4,110a26.81,26.81,0,0,0-17.54,12.88,27.3,27.3,0,0,0-3.16,21.8Q509.76,156,519.16,161.52Z"/><path class="cls-9" d="M400,133.65,294.3,98.78l-1.42-8.42,97.56,32.12-5.26-31.2a5.38,5.38,0,0,0-2.31-3.59,5.54,5.54,0,0,0-4.28-1l-5.52.93-1.26-7.45L390.45,77Z"/><path class="cls-10" d="M155.8,186.89a35,35,0,0,1,20.79.32,40.69,40.69,0,0,1,9.71-25l2.43-2.89L223,188.24l-2.44,2.89A41,41,0,0,1,197.68,205a36.07,36.07,0,0,1,3.73,20.55,35,35,0,0,1-8.22,19.08,35.31,35.31,0,0,1-24.45,12.71,35.84,35.84,0,0,1-39-32.86,35.33,35.33,0,0,1,8.41-26.25A35,35,0,0,1,155.8,186.89Zm28.29,5.55.64,6.4,6.42-.45q11.58-.67,21-9.43l-22.26-18.77A33,33,0,0,0,184.09,192.44Zm-46.67,31.33a28.38,28.38,0,0,0,50,16q7.23-8.55,6.44-20.76t-9.57-19.6q-8.88-7.5-21-6.12T144,203.1A27.47,27.47,0,0,0,137.42,223.77Z"/><path class="cls-11" d="M134.42,408.68l-30.37,41.43L95.44,449l19.84-27a36.08,36.08,0,0,1-14.7,1.15q-14.3-1.91-23.56-14T69.62,383a34.51,34.51,0,0,1,14.09-24.19q12.06-8.91,26.22-7,16.09,2.14,24.65,14.3t6.72,25.89A35.88,35.88,0,0,1,134.42,408.68ZM102,415.52a29.32,29.32,0,0,0,20.92-6,26.56,26.56,0,0,0,10.7-18.35,28.1,28.1,0,0,0-5.49-20.78,26.06,26.06,0,0,0-18.36-11.2,28.16,28.16,0,0,0-21.56,5.46A26.54,26.54,0,0,0,77.4,382.87Q75.65,396.06,83.14,405A28.72,28.72,0,0,0,102,415.52Z"/><path class="cls-12" d="M338.7,55.36A350.9,350.9,0,0,0,321.25,742.9,350.9,350.9,0,0,0,478,58.82,348.75,348.75,0,0,0,338.7,55.36ZM561.88,213.59a2.19,2.19,0,0,1-2.81,0q-8.6-7.25-17.91-13.78a247.37,247.37,0,0,0-64.25-32.31,2.18,2.18,0,0,1-1.47-2.45L492.16,70.2a2.21,2.21,0,0,1,2.76-1.73,345.51,345.51,0,0,1,103.6,49.41A349.39,349.39,0,0,1,636,148.18a2.19,2.19,0,0,1-.08,3.28Zm-24.13-10A240.83,240.83,0,0,1,261.49,598.14c-77.58-54.32-117.18-148.32-98.13-249.57,0-.05,0-.11,0-.16,25.52-99.81,101.14-168.27,194.4-184.72A239.23,239.23,0,0,1,537.75,203.59ZM743.53,358.3a2.19,2.19,0,0,1-2.17,2.46H644.69a2.19,2.19,0,0,1-2.16-1.83h0A246,246,0,0,0,607.66,269a2.17,2.17,0,0,1,.43-2.85l73.65-61.8a2.2,2.2,0,0,1,3.21.42q3,4.27,5.8,8.63A344.45,344.45,0,0,1,741,341.55Q742.48,349.92,743.53,358.3ZM690.06,590.92a2.21,2.21,0,0,1-3.25.47l-74-62.08a2.19,2.19,0,0,1-.47-2.78,244.37,244.37,0,0,0,32.08-93.85,2.18,2.18,0,0,1,2.16-1.92h96.14a2.19,2.19,0,0,1,2.18,2.39,345.59,345.59,0,0,1-54.85,157.77ZM496.45,734.5a2.2,2.2,0,0,1-2.77-1.73l-16.74-94.94a2.18,2.18,0,0,1,1.47-2.45A243.81,243.81,0,0,0,566,583.86a2.18,2.18,0,0,1,2.88-.07l73.7,61.84a2.19,2.19,0,0,1,.13,3.24A345.12,345.12,0,0,1,496.45,734.5ZM306.87,632.14a2.18,2.18,0,0,1,2.7-.93,243.76,243.76,0,0,0,96.23,17A2.18,2.18,0,0,1,408,650l16.74,94.94a2.2,2.2,0,0,1-2,2.57,345.25,345.25,0,0,1-163-28.8,2.19,2.19,0,0,1-1-3.1Zm-129-118.56a2.19,2.19,0,0,1,2.69,1.06,244.7,244.7,0,0,0,65.26,79.57,2.18,2.18,0,0,1,.54,2.8l-48.2,83.48a2.19,2.19,0,0,1-3.19.68A344.91,344.91,0,0,1,86.27,549.45a2.2,2.2,0,0,1,1.23-3ZM64.57,313.74a2.19,2.19,0,0,1,2.87-1.49l90.34,32.88a2.18,2.18,0,0,1,1.37,2.53A246,246,0,0,0,157,444.52c.08.51,1.06,6,1.6,9a2.19,2.19,0,0,1-1.54,2.49l-91.92,26.9a2.18,2.18,0,0,1-2.75-1.62c-1.36-6.07-2.87-13.69-3.88-19.41A344.42,344.42,0,0,1,62,324.32Q63.16,319,64.57,313.74ZM195.73,121.57a2.21,2.21,0,0,1,3.19.68l48.17,83.43a2.18,2.18,0,0,1-.54,2.8,247.54,247.54,0,0,0-48.7,51.85c-4.26,6.08-11.9,17-16.12,24.1a2.18,2.18,0,0,1-2.77.89L92.28,247a2.19,2.19,0,0,1-1.06-3,348.65,348.65,0,0,1,104.51-122.4Zm63.54-34.29a2.19,2.19,0,0,1,1.13-2.88A349,349,0,0,1,421.15,55.81a2.19,2.19,0,0,1,2,2.57l-16.75,95a2.18,2.18,0,0,1-2.19,1.8A249.34,249.34,0,0,0,357,159c-16,2.83-42.19,9-57.89,14.9a2.16,2.16,0,0,1-2.75-1.18Z"/></g></g></svg>