<svg xmlns="http://www.w3.org/2000/svg" xmlns:xlink="http://www.w3.org/1999/xlink" viewBox="0 0 783.84 783.51"><defs><style>.cls-1{fill:#333;stroke:#000;stroke-miterlimit:10;}.cls-2{fill:url(#Brass_Radial);}.cls-3{fill:url(#Brass_Radial-2);}.cls-4{fill:url(#Brass_Radial-3);}.cls-5{fill:url(#Brass_Radial-4);}.cls-6{fill:url(#Brass_Radial-5);}.cls-7{fill:url(#Brass_Radial-6);}.cls-8{fill:url(#Brass_Radial-7);}.cls-9{fill:url(#Brass_Radial-8);}.cls-10{fill:url(#Brass_Radial-9);}.cls-11{fill:url(#Brass_Radial-10);}.cls-12{fill:url(#Brass_Radial-11);}</style><radialGradient id="Brass_Radial" cx="553.03" cy="186.36" r="117.15" gradientTransform="translate(935.68 178.39) rotate(140)" gradientUnits="userSpaceOnUse"><stop offset="0.18" stop-color="#f8f0e4"/><stop offset="0.59" stop-color="#f2d78f"/><stop offset="1" stop-color="#c58511"/></radialGradient><radialGradient id="Brass_Radial-2" cx="248.75" cy="202.72" r="40.8" gradientTransform="translate(326.6 80.49) rotate(-16.84)" xlink:href="#Brass_Radial"/><radialGradient id="Brass_Radial-3" cx="465.21" cy="189.71" r="42.45" gradientTransform="matrix(0.98, -0.17, 0.17, 0.98, 196.86, 287.08)" xlink:href="#Brass_Radial"/><radialGradient id="Brass_Radial-4" cx="644.35" cy="293.1" r="47.32" gradientTransform="matrix(0.98, -0.17, 0.17, 0.98, -67.71, 403.89)" xlink:href="#Brass_Radial"/><radialGradient id="Brass_Radial-5" cx="721.89" cy="483.01" r="39.45" gradientTransform="matrix(0.98, -0.17, 0.17, 0.98, -351.85, 326.31)" xlink:href="#Brass_Radial"/><radialGradient id="Brass_Radial-6" cx="657.67" cy="686.41" r="45.44" gradientTransform="matrix(0.98, -0.17, 0.17, 0.98, -522.4, 86.21)" xlink:href="#Brass_Radial"/><radialGradient id="Brass_Radial-7" cx="475.44" cy="806.21" r="42.95" gradientTransform="matrix(0.98, -0.17, 0.17, 0.98, -495.94, -220.33)" xlink:href="#Brass_Radial"/><radialGradient id="Brass_Radial-8" cx="249.7" cy="794.54" r="47.67" gradientTransform="translate(-290.35 -422.74) rotate(-12.09)" xlink:href="#Brass_Radial"/><radialGradient id="Brass_Radial-9" cx="84.65" cy="603.75" r="44.68" gradientTransform="translate(8.23 -428) rotate(-14.62)" xlink:href="#Brass_Radial"/><radialGradient id="Brass_Radial-10" cx="95.43" cy="350.53" r="42.02" gradientTransform="matrix(0.98, -0.17, 0.17, 0.98, 286.79, -231.11)" xlink:href="#Brass_Radial"/><radialGradient id="Brass_Radial-11" cx="363.75" cy="230.28" r="350.83" gradientTransform="translate(655.83 732.34) rotate(-160)" xlink:href="#Brass_Radial"/></defs><g id="Layer_2" data-name="Layer 2"><g id="Layer_1-2" data-name="Layer 1"><path class="cls-1" d="M716.17,167.28l15.75,18.77c21.83,28.67,32.67,62.44,44.4,95.79,6.49,18.47,8.57,33-17.21,34.39-9,.49-11.37,5.42-9.82,14.27,6.67,38.1,8.31,76.39,1.63,114.69-1.63,9.36,3.24,12,10.93,14.31,24.13,7.13,24,7.72,18.35,32.89-8.73,38.59-27.91,72.69-45.46,107.51-5.75,11.43-14.3,13.41-24.23,6.08-12.28-9.05-20.42-5.85-28.72,6-17.5,25-40.2,45.09-63.89,64.14-17.73,14.26-17.49,14.6-6.65,35.24a16.28,16.28,0,0,1,1.93,8.38l-16.09,13.5c-32.13,24.36-70,35.51-107.78,46.93-17.73,5.36-20.23,4.3-24-13.57-2.57-12.27-7.89-16.19-20.52-14.21-37,5.81-74.2,6.88-111.22-.43-9.11-1.8-13.72,1.23-16.95,10.11C310,780.3,306.52,781.57,288.09,777c-39-9.61-73.36-29.38-107.91-48.71-10.71-6-15.21-14.3-7-25.8,6-8.44,3.47-15.18-4.31-20.85-24.7-18-45-40.49-63.33-64.66-9.31-12.29-18.57-18.89-33.21-8.84-2.42,1.65-5.58,1.48-8.51,1.41l-2.25-2.68c-.81-6.68-6.92-9.76-10.09-14.84C23.16,560.34,15.35,519.67,3.3,480.91c-2.94-9.48,2.35-16.16,11.55-18.27,13.37-3.07,15.92-11.28,13.93-23.44-4.85-29.57-4.08-59.25-.18-88.84,1.52-11.6-1-18.95-14-21.19-12-2.06-15.73-10.33-13.44-22.12,8.33-42.9,27.21-81.64,47.1-120,5.36-10.31,13.9-10,22-4,10.92,8,17.09,3.91,23.94-5.9,17.07-24.45,36.76-46.81,60.35-65.13,12.4-9.64,20.59-18.72,9.58-34.26-1.67-2.35-.93-5.67-.87-8.58L182,53.47C212.19,30.68,247,18,282.57,6.82c19-6,20.15-5.74,26.26,13.16,3.34,10.33,8.69,14.1,19.31,12.08,35.85-6.83,71.92-6.58,107.94-1.79,13.41,1.78,21.38-1.58,22.27-16.48C459,2.72,465.57-1,476.43,1c44.86,8.26,85,28,124.08,50.44,10.6,6.08,7.22,15.05,2,22.6-7.68,11-5.7,17.76,5.53,25.57,25,17.39,45.83,39.42,64.85,63.24,14.26,17.88,14.67,17.58,34.94,6.38A15.79,15.79,0,0,1,716.17,167.28Z"/><circle class="cls-2" cx="392.25" cy="391.11" r="117.15"/><path class="cls-3" d="M664.67,229.63l-19,16.53-5-5.82,2.32-2a5.71,5.71,0,0,0,.57-8.09l-47-54.11a5.73,5.73,0,0,0-8.1-.56l-2.32,2-5-5.71,12.36-10.74,55.75,64.14a5.73,5.73,0,0,0,8.1.56l2.32-2Z"/><path class="cls-4" d="M712.83,371.66a35.9,35.9,0,0,1-5.3,18A156.5,156.5,0,0,1,693.64,409q-12.78,15.16-16.73,25.55l17.35.52a5.17,5.17,0,0,0,4-1.63,5.68,5.68,0,0,0,1.73-3.94l.16-5.45,7.56.22-.56,18.89L667.3,442l1-4.45a46.94,46.94,0,0,1,5.3-13.5,92.35,92.35,0,0,1,7.49-11.54q3.49-4.45,9.45-11.41,14.37-16.8,14.75-29.68A18.37,18.37,0,0,0,700,357.69a18.56,18.56,0,0,0-13.34-6,18,18,0,0,0-7.89,1.58q-5.52,2.22-5.74,9.5l-7.56-.23.57-19,7.56.22-.11,3.64A25.9,25.9,0,0,1,687,344.14a25.45,25.45,0,0,1,18.51,8.46A25.82,25.82,0,0,1,712.83,371.66Z"/><path class="cls-5" d="M665.71,561.58l-3.55,2.86a40,40,0,0,1-26.3,9,32.1,32.1,0,0,1,4.72,21.08q-1.29,11.33-10.12,21.64a36.29,36.29,0,0,1-23.94,10.76,33.38,33.38,0,0,1-25.11-8.12,35.09,35.09,0,0,1-11.07-15.92l6.09-7.12a28.41,28.41,0,0,0,9.79,17.2,26.86,26.86,0,0,0,19.42,6.48,28.17,28.17,0,0,0,19-8.08,33,33,0,0,0,7.73-15.5q1.53-8.26-.36-14.12a19.3,19.3,0,0,0-5.52-9l-2.76-2.36,4.64-5.43a33,33,0,0,0,25.22-3.86l-15.65-13.37a5.38,5.38,0,0,0-4.07-1.27,5.52,5.52,0,0,0-3.91,2l-3.64,4.26-5.75-4.91,12.29-14.37Z"/><path class="cls-6" d="M399.07,711l-4.44-24.81,7.58-1.36.52,2.9a5.74,5.74,0,0,0,6.66,4.64l12.82-2.3-6.32-35.28,76.95,21.49,1.53,8.55,1.58,8.82L488.51,695l-.54-3a5.74,5.74,0,0,0-6.66-4.64l-50.3,9,1.43,8L425,705.63l-1.44-8-12.81,2.3a5.74,5.74,0,0,0-4.64,6.66l.54,3Zm30.58-22.26L478.16,680,425.45,665.3Z"/><path class="cls-7" d="M244.44,670.56a35.86,35.86,0,0,1-27.52-65.74l8.06,4.52a27.17,27.17,0,0,0-14.75,12.28,29.41,29.41,0,0,0-3,21.61q2.65,11.6,13.52,17.69a27.25,27.25,0,0,0,21.61,2.39,27.56,27.56,0,0,0,17.15-13.42A36.22,36.22,0,0,0,264,632l27.27,30.68-15.61,27.85-16.49-9.24,3.77-6.72,4.88,2.74a6.08,6.08,0,0,0,4.29.79,5.12,5.12,0,0,0,3.39-2.75L282,663.61,268.51,648.5a37.38,37.38,0,0,1-2.37,5.09A34.85,34.85,0,0,1,244.44,670.56Z"/><path class="cls-8" d="M121.94,512.45q-12.94,4.54-27-2T76.15,490.25Q71.36,476.65,77.7,463a34.42,34.42,0,0,1,20.59-18.67,34.87,34.87,0,0,1,27.06,1.4,34.15,34.15,0,0,1,18.51,20.58,35.61,35.61,0,0,1,1.71,17.94L137.27,535l-8.19,2.87,5.44-33.07A34.39,34.39,0,0,1,121.94,512.45ZM83.05,487.09a28.93,28.93,0,0,0,36.73,18,28.76,28.76,0,0,0,15.92-13.61q5.61-10,1.25-22.4a27.91,27.91,0,0,0-14.43-16.15,26.8,26.8,0,0,0-21.72-1.41,27.27,27.27,0,0,0-16.43,14.67Q79.42,476.79,83.05,487.09Z"/><path class="cls-9" d="M72,324.56l83-74.09,8,3L86.47,321.88l29.65,11a5.37,5.37,0,0,0,4.26-.2,5.58,5.58,0,0,0,3-3.22l1.95-5.25,7.09,2.64-6.6,17.71Z"/><path class="cls-10" d="M238.61,98.89a35.33,35.33,0,0,1,27.31-3.72,35.84,35.84,0,0,1,25.59,44.07,35.33,35.33,0,0,1-16.76,21.88,34.94,34.94,0,0,1-20.22,4.78A36,36,0,0,1,235,158.65a41,41,0,0,1-17.63,20.11l-3.26,1.9-22.5-38.74,3.26-1.89a40.73,40.73,0,0,1,26.28-5.23,36,36,0,0,1,17.51-35.91Zm-36.58,46,14.62,25.18q10.24-7.74,12.93-19l1.55-6.25-6.19-1.75A33,33,0,0,0,202,144.91Zm40.38-39.48q-9.57,5.55-13,17.28t2.37,21.78q5.76,9.93,17.65,12.82T271,154.58a28.43,28.43,0,0,0,10.3-38.85,28.56,28.56,0,0,0-38.84-10.3Z"/><path class="cls-11" d="M456.57,74.71l35.54,37.1-2.62,8.27L466.32,95.86a36,36,0,0,1-1.42,14.67Q460.55,124.29,447,131.3t-27,2.75A34.46,34.46,0,0,1,398.64,116q-6.69-13.43-2.38-27,4.9-15.48,18.36-21.79T441.29,65A35.74,35.74,0,0,1,456.57,74.71Zm1.12,33.1a29.38,29.38,0,0,0-2.25-21.64,26.6,26.6,0,0,0-16.21-13.73,28.22,28.22,0,0,0-21.43,1.8,26.11,26.11,0,0,0-14.21,16.13,28.13,28.13,0,0,0,1.64,22.18,26.47,26.47,0,0,0,16,13.82q12.69,4,22.82-1.8A28.78,28.78,0,0,0,457.69,107.81Z"/><path class="cls-12" d="M42.32,409.33A351.78,351.78,0,1,0,63.1,271.55,349.74,349.74,0,0,0,42.32,409.33Zm63.81,171.61a2.2,2.2,0,0,1-3.25-.48,350.81,350.81,0,0,1-23.33-42.18,345.42,345.42,0,0,1-30.67-110.6,2.2,2.2,0,0,1,2.19-2.42h96.3a2.17,2.17,0,0,1,2.15,1.87A247.55,247.55,0,0,0,170.19,496q4.8,10.31,10.46,20a2.18,2.18,0,0,1-.48,2.76Zm60.34-271.77c32.39-89,112.94-151.57,215.66-159.37h.18c103-1.18,188.71,54.15,228.73,140a240.83,240.83,0,1,1-444.57,19.41ZM275.08,717.44A344.27,344.27,0,0,1,157.65,645.7q-3.83-3.54-7.49-7.21a2.19,2.19,0,0,1,.13-3.23L224,573.46a2.17,2.17,0,0,1,2.88.07,246.09,246.09,0,0,0,82.45,49.94h0a2.2,2.2,0,0,1,1.43,2.44l-16.79,95.2a2.19,2.19,0,0,1-2.8,1.72Q283.07,720.33,275.08,717.44ZM411.15,738a345.52,345.52,0,0,1-46.54-.77,2.2,2.2,0,0,1-2-2.57L379.33,640a2.17,2.17,0,0,1,2.26-1.79,244.5,244.5,0,0,0,98-15.3,2.2,2.2,0,0,1,2.66.95l48.29,83.64a2.21,2.21,0,0,1-1,3.12A345,345,0,0,1,411.15,738Zm236.3-110.19A345.24,345.24,0,0,1,594.81,674a2.19,2.19,0,0,1-3.17-.7L543.53,590a2.18,2.18,0,0,1,.57-2.82,243.7,243.7,0,0,0,65.95-77.29,2.17,2.17,0,0,1,2.66-1l90.59,33a2.2,2.2,0,0,1,1.23,3A343.13,343.13,0,0,1,647.45,627.78Zm79.74-320.37a2.18,2.18,0,0,1,2.88,1.52,345.3,345.3,0,0,1,0,165.57,2.18,2.18,0,0,1-2.88,1.53l-90.59-33a2.19,2.19,0,0,1-1.39-2.49,243.8,243.8,0,0,0,0-97.72,2.17,2.17,0,0,1,1.38-2.49Zm-136.83-198a2.2,2.2,0,0,1,3.16-.7A345.51,345.51,0,0,1,704.36,238.64a2.2,2.2,0,0,1-1.22,3l-90.58,33a2.19,2.19,0,0,1-2.67-1,244.38,244.38,0,0,0-67-78.09,2.18,2.18,0,0,1-.58-2.83ZM376,45.71A344.23,344.23,0,0,1,512.1,66.24c5.46,2,12.7,4.79,18.45,7.18a2.19,2.19,0,0,1,1.11,3L489.2,162.27a2.17,2.17,0,0,1-2.71,1.08l-8.59-3.15a246,246,0,0,0-95.76-14.71,2.18,2.18,0,0,1-2.26-1.8L363.19,49a2.19,2.19,0,0,1,2-2.56C368.77,46.15,372.39,45.89,376,45.71ZM247.15,77.8a350,350,0,0,1,44.66-17.22,2.19,2.19,0,0,1,2.77,1.57l22.72,92a2.18,2.18,0,0,1-1.35,2.57c-7.7,2.93-19.81,8.56-26.53,11.69a247.7,247.7,0,0,0-59.52,39,2.17,2.17,0,0,1-2.85,0l-73.8-61.92a2.2,2.2,0,0,1-.12-3.26A345.5,345.5,0,0,1,247.15,77.8ZM186,250.19a2.18,2.18,0,0,1,.68,2.93c-8.5,14.43-19.17,39.15-24.72,54.41A248.77,248.77,0,0,0,150,353.42a2.18,2.18,0,0,1-2.16,1.84H51.4a2.2,2.2,0,0,1-2.18-2.43A349.24,349.24,0,0,1,105.3,199.48a2.2,2.2,0,0,1,3-.61Z"/></g></g></svg>