<svg xmlns="http://www.w3.org/2000/svg" xmlns:xlink="http://www.w3.org/1999/xlink" viewBox="0 0 144.27 144.73"><defs><style>.cls-1,.cls-2{stroke-miterlimit:10;}.cls-1{fill:url(#Pewter_Radial);stroke:url(#Steel_Radial);}.cls-2{stroke-width:0;fill:url(#Steel_Radial-2);stroke:url(#Steel_Radial-3);}</style><radialGradient id="Pewter_Radial" cx="72.13" cy="72.37" r="71.75" gradientUnits="userSpaceOnUse"><stop offset="0.01" stop-color="#bbbcc2"/><stop offset="0.33" stop-color="#b6b6b3"/><stop offset="0.35" stop-color="#b6b5b2"/><stop offset="0.5" stop-color="#a7a9a9"/><stop offset="0.67" stop-color="#91989c"/><stop offset="1" stop-color="#71797d"/></radialGradient><radialGradient id="Steel_Radial" cx="72.13" cy="72.37" r="72.25" gradientUnits="userSpaceOnUse"><stop offset="0" stop-color="#eeebe9"/><stop offset="0" stop-color="#f9f8f8"/><stop offset="0" stop-color="#fff"/><stop offset="0.15" stop-color="#f0f0f0"/><stop offset="0.42" stop-color="#c9c9c9"/><stop offset="0.52" stop-color="#bababa"/><stop offset="0.6" stop-color="#b0b1b1"/><stop offset="0.73" stop-color="#969899"/><stop offset="0.89" stop-color="#6c7171"/><stop offset="1" stop-color="#4c5354"/></radialGradient><radialGradient id="Steel_Radial-2" cx="-492.19" cy="279.71" r="21.05" gradientTransform="matrix(0.77, -0.64, -0.64, -0.77, 629, -29.76)" xlink:href="#Steel_Radial"/><radialGradient id="Steel_Radial-3" cx="72.16" cy="72.34" r="21.05" xlink:href="#Steel_Radial"/></defs><g id="Layer_2" data-name="Layer 2"><g id="Layer_3" data-name="Layer 3"><path class="cls-1" d="M22.44,122.68l2.83,3.37c4.4,4.76,10,7.73,15.57,10.85,3.07,1.72,5.57,2.55,6.62-2,.37-1.58,1.32-1.84,2.83-1.29a59.41,59.41,0,0,0,20.25,3.86c1.71,0,2,.95,2.19,2.38.51,4.5.62,4.5,5.25,4.28,7.1-.34,13.74-2.67,20.45-4.69,2.2-.66,2.81-2.11,1.83-4.1-1.22-2.46-.4-3.8,2-4.9,5-2.31,9.23-5.7,13.34-9.3,3.08-2.7,3.13-2.64,6.45-.08a2.86,2.86,0,0,0,1.42.6l2.89-2.42c5.31-4.93,8.47-11.29,11.67-17.61,1.5-3,1.39-3.45-1.65-4.67-2.1-.84-2.62-1.9-1.88-4.07a57.22,57.22,0,0,0,3.4-19.7c0-1.67.64-2.39,2.31-2.68,3.44-.61,3.77-1.19,3.54-4.59-.48-7.2-2.91-13.9-5.25-20.62-.73-2.08-2.06-3.13-4.35-2-1.68.8-2.79.14-3.56-1.41a55.83,55.83,0,0,0-9.46-13.23c-1.89-2-2.77-3.88-.53-6.15a2.49,2.49,0,0,0,.51-1.47l-.4-.48c-1.16-.35-1.51-1.53-2.31-2.25-4.73-6-11.68-8.65-18.17-12-1.58-.82-2.93-.09-3.59,1.47-1,2.27-2.5,2.47-4.58,1.74A54.32,54.32,0,0,0,76.3,6.71C74.2,6.62,73,5.94,73,3.57,73,1.38,71.65.46,69.49.5c-7.85.14-15.3,2.27-22.7,4.59-2,.63-2.2,2.15-1.39,3.78,1.08,2.18.15,3.14-1.8,4.05a53.2,53.2,0,0,0-13.4,8.65c-2.1,1.89-4,3.06-6.37.62-.36-.37-1-.34-1.49-.42L19,24.6C14,29.23,10.66,35,7.58,40.94,5.93,44.11,5.93,44.32,9.09,46c1.72.91,2.22,2,1.53,3.79A60.19,60.19,0,0,0,6.94,68.84c-.11,2.43-1,3.73-3.62,3.42-2-.22-2.83.82-2.82,2.81C.56,83.26,2.81,91,5.56,98.6c.74,2.06,2.43,1.75,3.93,1.05,2.19-1,3.32-.45,4.36,1.78A56,56,0,0,0,23,114.88c2.71,3.08,2.65,3.14,0,6.38A2.87,2.87,0,0,0,22.44,122.68Z"/><circle class="cls-2" cx="72.16" cy="72.34" r="21.05"/></g></g></svg>