<svg xmlns="http://www.w3.org/2000/svg" xmlns:xlink="http://www.w3.org/1999/xlink" viewBox="0 0 829.6 831.26"><defs><style>.cls-1{fill:#333;stroke:#000;stroke-miterlimit:10;stroke-width:5px;}.cls-2{fill:url(#Brass_Radial);}.cls-3{fill:url(#Brass_Radial-2);}.cls-4{fill:url(#Brass_Radial-3);}.cls-5{fill:url(#Brass_Radial-4);}.cls-6{fill:url(#Brass_Radial-5);}.cls-7{fill:url(#Brass_Radial-6);}.cls-8{fill:url(#Brass_Radial-7);}.cls-9{fill:url(#Brass_Radial-8);}.cls-10{fill:url(#Brass_Radial-9);}.cls-11{fill:url(#Brass_Radial-10);}.cls-12{fill:url(#Brass_Radial-11);}.cls-13{fill:url(#Brass_Radial-12);}</style><radialGradient id="Brass_Radial" cx="414.2" cy="133.82" r="49.18" gradientTransform="translate(0.6 -7.16)" gradientUnits="userSpaceOnUse"><stop offset="0.18" stop-color="#f8f0e4"/><stop offset="0.59" stop-color="#f2d78f"/><stop offset="1" stop-color="#c58511"/></radialGradient><radialGradient id="Brass_Radial-2" cx="578.6" cy="188.89" r="41.95" gradientTransform="matrix(1, -0.04, 0.04, 1, -3.96, 15.26)" xlink:href="#Brass_Radial"/><radialGradient id="Brass_Radial-3" cx="682.98" cy="332.65" r="44.42" gradientTransform="translate(14.98 -40.61) rotate(2.85)" xlink:href="#Brass_Radial"/><radialGradient id="Brass_Radial-4" cx="693.65" cy="503.92" r="42.36" gradientTransform="translate(43.08 -63.51) rotate(5)" xlink:href="#Brass_Radial"/><radialGradient id="Brass_Radial-5" cx="578.09" cy="661.74" r="42.35" gradientTransform="translate(70.65 -66.47) rotate(6.39)" xlink:href="#Brass_Radial"/><radialGradient id="Brass_Radial-6" cx="262.3" cy="651.07" r="41.91" gradientTransform="translate(89.44 -34.36) rotate(8.5)" xlink:href="#Brass_Radial"/><radialGradient id="Brass_Radial-7" cx="149.82" cy="527.71" r="44.54" gradientTransform="translate(53.6 -19.25) rotate(6.86)" xlink:href="#Brass_Radial"/><radialGradient id="Brass_Radial-8" cx="144.53" cy="334.77" r="44.12" gradientTransform="translate(21.78 -17.19) rotate(4.65)" xlink:href="#Brass_Radial"/><radialGradient id="Brass_Radial-9" cx="244.43" cy="184.33" r="41.62" gradientTransform="translate(5.24 -16.33) rotate(2.18)" xlink:href="#Brass_Radial"/><radialGradient id="Brass_Radial-10" cx="422.21" cy="706.57" r="41.24" gradientTransform="matrix(0.99, 0.13, -0.13, 0.99, 88.57, -53.25)" xlink:href="#Brass_Radial"/><radialGradient id="Brass_Radial-11" cx="414.8" cy="415.63" r="196.67" gradientTransform="matrix(1, 0, 0, 1, 0, 0)" xlink:href="#Brass_Radial"/><radialGradient id="Brass_Radial-12" cx="414.8" cy="415.63" r="72.51" gradientTransform="matrix(1, 0, 0, 1, 0, 0)" xlink:href="#Brass_Radial"/></defs><g id="Layer_2" data-name="Layer 2"><g id="Layer_1-2" data-name="Layer 1"><path class="cls-1" d="M751.46,182.67l16.85,20.08c23.39,30.64,35.34,66.47,48.21,101.88,7.12,19.6,9.55,35-17.49,36-9.44.36-11.85,5.53-10.08,14.9,7.64,40.34,10,80.79,3.63,121.12-1.56,9.85,3.6,12.76,11.71,15.29,25.46,7.93,25.38,8.55,19.82,35-8.53,40.59-28.1,76.28-45.94,112.75-5.85,12-14.79,13.91-25.34,6-13-9.76-21.54-6.51-30.05,5.87-17.95,26.13-41.46,46.93-66,66.65-18.37,14.76-18.11,15.12-6.39,37.09a17.78,17.78,0,0,1,2.17,8.89l-16.67,14c-33.32,25.19-72.93,36.32-112.38,47.75-18.52,5.36-21.16,4.2-25.39-14.72-2.91-13-8.56-17.23-21.78-15.35-38.77,5.51-77.8,6-116.79-2.31-9.59-2.05-14.38,1.07-17.62,10.39-6.66,19.13-10.3,20.41-29.73,15.31-41.08-10.79-77.5-32.24-114.11-53.22-11.34-6.51-16.2-15.36-7.78-27.36,6.19-8.81,3.39-16-4.87-22.09-26.23-19.45-47.94-43.49-67.57-69.32-10-13.13-19.81-20.25-35-9.89-2.51,1.71-5.83,1.47-8.91,1.35l-2.41-2.87c-1-7.07-7.43-10.42-10.84-15.83-30.27-34-39.14-77-52.44-118.16-3.25-10.05,2.2-17,11.82-19.1,14-3,16.53-11.64,14.23-24.51C28.71,427,29,395.67,32.62,364.5c1.41-12.22-1.4-20-15.07-22.6C4.92,339.51.86,330.73,3.07,318.32c8-45.16,27.21-85.74,47.46-125.87C56,181.65,65,182.13,73.59,188.59c11.6,8.69,18,4.41,25-5.83C116.13,157.24,136.44,134,160.9,115c12.86-10,21.3-19.42,9.48-36-1.79-2.51-1.06-6-1-9.07l19.44-16.31C220.05,30.05,256.42,17.23,293.54,6c19.84-6,21.06-5.72,27.79,14.34,3.68,11,9.36,15,20.48,13.06,37.52-6.6,75.39-5.74,113.3-.08,14.11,2.1,22.42-1.32,23.1-17C478.72,4.64,485.55.84,497,3.14c47.24,9.47,89.74,31,131.11,55.32,11.23,6.6,7.84,16,2.44,23.89-7.88,11.51-5.69,18.66,6.23,27.09,26.53,18.78,48.78,42.39,69.14,67.86,15.28,19.11,15.69,18.8,36.8,7.31A16.26,16.26,0,0,1,751.46,182.67Z"/><path class="cls-2" d="M450.75,93.36q14,15,13.23,35.18T448.1,162.61Q433,176.53,412.85,175.76T378.78,160a47.31,47.31,0,0,1-13.15-35.18q.76-20.15,15.8-34.07t35.18-13.15Q436.76,78.32,450.75,93.36Zm5.53,34.89a41.58,41.58,0,0,0-83.1-3.18q-.65,16.94,11.19,29.71t28.77,13.43a42,42,0,0,0,43.14-40Z"/><path class="cls-3" d="M566.05,228.87,545.71,214l4.54-6.22,2.49,1.82a5.73,5.73,0,0,0,8-1.25l42.29-57.87a5.73,5.73,0,0,0-1.25-8l-2.48-1.82,4.46-6.1L617,144.2l-50.14,68.61a5.73,5.73,0,0,0,1.25,8l2.49,1.82Z"/><path class="cls-4" d="M712.37,343a35.86,35.86,0,0,1-18.78,1.14,156.13,156.13,0,0,1-22.9-6.49q-18.6-6.87-29.71-7.06l5.4,16.5a5.22,5.22,0,0,0,2.91,3.25,5.73,5.73,0,0,0,4.29.28l5.19-1.7,2.35,7.19-18,5.88-12.42-37.92,4.52-.59a47.19,47.19,0,0,1,14.5.4,91.52,91.52,0,0,1,13.4,3.13q5.37,1.77,13.94,5,20.67,7.8,32.92,3.8a19.24,19.24,0,0,0,12.25-24.2,17.68,17.68,0,0,0-4.17-6.88q-4-4.46-10.88-2.19l-2.35-7.18L723,289.43l2.36,7.19-3.46,1.13a25.94,25.94,0,0,1,7.64,11.64,25.45,25.45,0,0,1-1.68,20.29A25.81,25.81,0,0,1,712.37,343Z"/><path class="cls-5" d="M727.62,535.11l-4-2.18A40,40,0,0,1,705.2,512.1a32.08,32.08,0,0,1-17.65,12.45q-10.95,3.15-23.87-1a36.27,36.27,0,0,1-19.12-18,33.38,33.38,0,0,1-2.15-26.3,35.1,35.1,0,0,1,10.45-16.33l8.92,2.89a28.38,28.38,0,0,0-12.13,15.64,26.84,26.84,0,0,0,1.48,20.42,28.14,28.14,0,0,0,14.75,14.42,33,33,0,0,0,17.28,1.18q8.22-1.76,12.9-5.75a19.27,19.27,0,0,0,6.15-8.53l1.12-3.46,6.79,2.2a33,33,0,0,0,13.24,21.8l6.35-19.58a5.36,5.36,0,0,0-.39-4.24,5.55,5.55,0,0,0-3.35-2.85l-5.32-1.73,2.33-7.19L741,494Z"/><path class="cls-6" d="M535,623.54l20.32-14.89,4.56,6.21-2.38,1.74a5.73,5.73,0,0,0-1.23,8l7.69,10.5,28.91-21.18,14.52,78.57-7,5.13-7.22,5.29-4.47-6.1,2.48-1.82a5.74,5.74,0,0,0,1.24-8l-30.2-41.22-6.55,4.8-4.47-6.1,6.55-4.8-7.7-10.5a5.74,5.74,0,0,0-8-1.24l-2.48,1.82Zm33.43,17.68L597.59,681l-9.92-53.82Z"/><path class="cls-7" d="M232.38,666.18q-11-8.2-13.37-23.52t6.24-26.86q8.63-11.56,23.49-13.92a34.37,34.37,0,0,1,27,6.68,34.84,34.84,0,0,1,13.93,23.23,34.13,34.13,0,0,1-6.75,26.84A35.55,35.55,0,0,1,269,670.06l-46.71,21.4-6.95-5.19,30.48-13.94A34.1,34.1,0,0,1,232.38,666.18Zm-.65-46.42a28.93,28.93,0,0,0,5.59,40.5,28.85,28.85,0,0,0,20.17,5.62q11.43-.92,19.3-11.46a27.91,27.91,0,0,0,5.35-21,26.82,26.82,0,0,0-10.94-18.81,27.26,27.26,0,0,0-21.35-5.45Q238.26,611,231.73,619.76Z"/><path class="cls-8" d="M85.55,489.82l109.58,19.43,2.6,8.13L96.59,499.51l9.66,30.13a5.38,5.38,0,0,0,2.8,3.22,5.49,5.49,0,0,0,4.38.36l5.33-1.71,2.3,7.2-18,5.77Z"/><path class="cls-9" d="M164.07,295a35.31,35.31,0,0,1,21.21,17.6,35.83,35.83,0,0,1-15.15,48.65,35.3,35.3,0,0,1-27.45,2.46,34.9,34.9,0,0,1-17.19-11.66,36.1,36.1,0,0,1-7.92-19.33,41.11,41.11,0,0,1-26.73.63l-3.61-1.13,13.32-42.77,3.61,1.12a40.71,40.71,0,0,1,21.61,15.82A36.07,36.07,0,0,1,164.07,295Zm-57.39,2.81-9.81,27.41q12.51,2.85,22.86-2.37L125.5,320l-2.66-5.86A32.92,32.92,0,0,0,106.68,297.84Zm56.21,5.4q-10.41-3.72-21.61,1.19t-15.12,15.85q-3.87,10.8,1.58,21.75t16,14.73a28.42,28.42,0,0,0,19.16-53.52Z"/><path class="cls-10" d="M274.13,165.27l7.16,50.88-7,5.18-4.65-33.19A36.12,36.12,0,0,1,260,199.22q-11.56,8.61-26.65,6.41t-23.53-13.55A34.49,34.49,0,0,1,203,164.92q2.41-14.79,13.87-23.33,13-9.71,27.63-7t22.89,13.85A35.93,35.93,0,0,1,274.13,165.27Zm-18.44,27.52a29.35,29.35,0,0,0,10.82-18.87,26.6,26.6,0,0,0-5.14-20.62,28.19,28.19,0,0,0-18.44-11.05A26.08,26.08,0,0,0,222,147a28.16,28.16,0,0,0-11.63,19,26.53,26.53,0,0,0,4.94,20.58q8,10.66,19.58,11.87A28.7,28.7,0,0,0,255.69,192.79Z"/><path class="cls-11" d="M398.87,714.6a35.85,35.85,0,0,1,43.2-56.67l.12,9.23a27.18,27.18,0,0,0-18-6.64,29.42,29.42,0,0,0-20.2,8.23q-8.72,8.09-8.57,20.55a27.23,27.23,0,0,0,8.72,19.91,27.58,27.58,0,0,0,20.19,8.16A36.36,36.36,0,0,0,442,712.25l-13,38.94-31.92.39-.23-18.9,7.7-.09.07,5.6a6.08,6.08,0,0,0,1.45,4.11,5.11,5.11,0,0,0,4.08,1.56l13.44-.16L430,724.44a39,39,0,0,1-5.59.49A34.86,34.86,0,0,1,398.87,714.6Z"/><path class="cls-12" d="M443.35,259.56a22.56,22.56,0,0,1,29.59-21.45,187.14,187.14,0,0,1,117.4,113.67,22.17,22.17,0,0,1-2.72,20.56A22.64,22.64,0,0,1,569.1,382H558.38a22.4,22.4,0,0,1-21-14.29c-.43-1.09-.88-2.19-1.33-3.27A132.23,132.23,0,0,0,466,294.36c-2.5-1.06-5.06-2.05-7.62-2.94a22.55,22.55,0,0,1-15-21.28ZM239.26,351.79a187.22,187.22,0,0,1,116.86-113.5,22.57,22.57,0,0,1,29.65,21.44v10.59a22.59,22.59,0,0,1-15,21.26c-2.41.85-4.82,1.79-7.16,2.78a132.23,132.23,0,0,0-70.06,70.06c-.46,1.08-.9,2.18-1.33,3.27a22.4,22.4,0,0,1-21,14.29H260.51A22.65,22.65,0,0,1,242,372.34,22.21,22.21,0,0,1,239.26,351.79ZM385.77,571.5a22.62,22.62,0,0,1-22.54,22.58A23,23,0,0,1,356,592.9,187.18,187.18,0,0,1,235.65,468.47a22.58,22.58,0,0,1,21.67-28.91H267.8a22.47,22.47,0,0,1,21.51,15.75c1.22,3.87,2.65,7.74,4.24,11.5a132.23,132.23,0,0,0,70.06,70.06c2.34,1,4.75,1.93,7.16,2.78a22.59,22.59,0,0,1,15,21.26ZM594,468.47a187.15,187.15,0,0,1-121.14,124.7,22.66,22.66,0,0,1-7,1.12,22.62,22.62,0,0,1-22.46-22.62V561.08a22.54,22.54,0,0,1,15-21.27c2.56-.9,5.12-1.89,7.62-2.94a132.23,132.23,0,0,0,70.06-70.06c1.58-3.76,3-7.63,4.24-11.5a22.46,22.46,0,0,1,21.51-15.75h10.47A22.56,22.56,0,0,1,594,468.47ZM596,339.06a197.2,197.2,0,1,0,15.47,76.57A196.06,196.06,0,0,0,596,339.06ZM325.82,504.61a125.85,125.85,0,1,1,89,36.85A125,125,0,0,1,325.82,504.61Z"/><circle class="cls-13" cx="414.8" cy="415.63" r="72.51"/></g></g></svg>