<svg xmlns="http://www.w3.org/2000/svg" xmlns:xlink="http://www.w3.org/1999/xlink" viewBox="0 0 798.94 797.34"><defs><style>.cls-1{fill:#333;stroke:#000;}.cls-1,.cls-12{stroke-miterlimit:10;}.cls-2{fill:url(#Brass_Radial);}.cls-3{fill:url(#Brass_Radial-2);}.cls-4{fill:url(#Brass_Radial-3);}.cls-5{fill:url(#Brass_Radial-4);}.cls-6{fill:url(#Brass_Radial-5);}.cls-7{fill:url(#Brass_Radial-6);}.cls-8{fill:url(#Brass_Radial-7);}.cls-9{fill:url(#Brass_Radial-8);}.cls-10{fill:url(#Brass_Radial-9);}.cls-11{fill:url(#Brass_Radial-10);}.cls-12{fill:none;stroke-width:30px;stroke:url(#Brass_Radial-11);}.cls-13{fill:url(#Brass_Radial-12);}.cls-14{fill:#1a1a1a;}</style><radialGradient id="Brass_Radial" cx="-1627.19" cy="-33.57" r="49.18" gradientTransform="matrix(1, 0, 0, -1, 1746.71, 354.43)" gradientUnits="userSpaceOnUse"><stop offset="0.18" stop-color="#f8f0e4"/><stop offset="0.59" stop-color="#f2d78f"/><stop offset="1" stop-color="#c58511"/></radialGradient><radialGradient id="Brass_Radial-2" cx="472.52" cy="87.72" r="41.95" gradientTransform="translate(-52.02 990.05) rotate(-74.2)" xlink:href="#Brass_Radial"/><radialGradient id="Brass_Radial-3" cx="602.91" cy="80.93" r="44.42" gradientTransform="matrix(-0.78, -0.63, 0.63, -0.78, 718.22, 1104.43)" xlink:href="#Brass_Radial"/><radialGradient id="Brass_Radial-4" cx="721.67" cy="257.36" r="42.36" gradientTransform="translate(1226.82 520.72) rotate(149)" xlink:href="#Brass_Radial"/><radialGradient id="Brass_Radial-5" cx="630.02" cy="532.91" r="42.35" gradientTransform="translate(1010.19 -158.64) rotate(78.39)" xlink:href="#Brass_Radial"/><radialGradient id="Brass_Radial-6" cx="367.8" cy="648.31" r="41.24" gradientTransform="translate(403.91 -279.34) rotate(7.53)" xlink:href="#Brass_Radial"/><radialGradient id="Brass_Radial-7" cx="71.01" cy="516.81" r="41.91" gradientTransform="translate(160.53 47.44) rotate(-61.03)" xlink:href="#Brass_Radial"/><radialGradient id="Brass_Radial-8" cx="19.09" cy="266.85" r="44.54" gradientTransform="translate(341.88 309.31) rotate(-137.14)" xlink:href="#Brass_Radial"/><radialGradient id="Brass_Radial-9" cx="111.59" cy="274.65" r="44.12" gradientTransform="matrix(-1, 0.08, 0.08, 1, 409.21, -165.89)" xlink:href="#Brass_Radial"/><radialGradient id="Brass_Radial-10" cx="310.06" cy="76.86" r="41.62" gradientTransform="translate(165.61 -104.56) rotate(74.18)" xlink:href="#Brass_Radial"/><radialGradient id="Brass_Radial-11" cx="-527.19" cy="-704.99" r="199" gradientTransform="matrix(0, 1, 1, 0, 1104.46, 925.86)" xlink:href="#Brass_Radial"/><radialGradient id="Brass_Radial-12" cx="-527.19" cy="-704.99" r="69.83" gradientTransform="matrix(0, 1, 1, 0, 1104.46, 925.86)" xlink:href="#Brass_Radial"/></defs><g id="Layer_2" data-name="Layer 2"><g id="Layer_1-2" data-name="Layer 1"><path class="cls-1" d="M174.5,723.79l19.39,16.27c29.59,22.59,64.19,34.13,98.38,46.56,18.93,6.87,33.78,9.22,34.79-16.89.35-9.12,5.34-11.44,14.39-9.73,39,7.38,78,9.66,117,3.5,9.51-1.5,12.32,3.48,14.76,11.31,7.66,24.58,8.26,24.51,33.83,19.14,39.2-8.24,73.66-27.13,108.89-44.36,11.56-5.66,13.44-14.28,5.81-24.48-9.43-12.59-6.3-20.8,5.66-29,25.24-17.34,45.33-40,64.37-63.75,14.25-17.75,14.6-17.49,35.82-6.17a17.11,17.11,0,0,0,8.58,2.09l13.5-16.09C774,580,784.72,541.73,795.75,503.64c5.19-17.89,4.06-20.44-14.21-24.53-12.56-2.81-16.64-8.27-14.83-21,5.33-37.44,5.82-75.13-2.22-112.79-2-9.26,1-13.88,10-17,18.47-6.43,19.71-9.95,14.78-28.72-10.42-39.66-31.13-74.84-51.39-110.19-6.28-11-14.83-15.65-26.42-7.51-8.51,6-15.43,3.27-21.34-4.71-18.78-25.33-42-46.29-66.94-65.25-12.68-9.64-19.56-19.14-9.55-33.82,1.65-2.42,1.42-5.63,1.3-8.6l-2.77-2.32c-6.82-.94-10.06-7.18-15.29-10.47-32.79-29.24-74.39-37.8-114.1-50.64-9.72-3.14-16.45,2.12-18.45,11.41-2.91,13.51-11.25,16-23.68,13.74-30.22-5.39-60.47-5.08-90.58-1.61C338.29,31,330.76,28.24,328.27,15c-2.31-12.2-10.79-16.12-22.78-14-43.61,7.76-82.8,26.28-121.55,45.83-10.43,5.27-10,13.93-3.72,22.27,8.38,11.2,4.25,17.39-5.64,24.18-24.65,16.91-47.13,36.52-65.43,60.14-9.63,12.42-18.76,20.57-34.78,9.16-2.42-1.73-5.79-1-8.76-1L49.85,180.39C27.1,210.59,14.73,245.72,3.91,281.57c-5.78,19.16-5.53,20.33,13.84,26.83,10.58,3.55,14.51,9,12.62,19.78C24,364.42,24.82,401,30.29,437.6c2,13.62-1.27,21.65-16.45,22.31C2.57,460.4-1.1,467,1.11,478c9.15,45.61,30,86.66,53.43,126.61C60.92,615.5,70,612.22,77.61,607c11.12-7.61,18-5.5,26.17,6,18.13,25.63,40.93,47.11,65.53,66.77,18.45,14.75,18.15,15.16,7.06,35.54A15.64,15.64,0,0,0,174.5,723.79Z"/><path class="cls-2" d="M121.33,437.1q-20.14.78-35.18-13.15T70.34,389.88A47.28,47.28,0,0,1,83.5,354.7a47.31,47.31,0,0,1,34.07-15.81q20.15-.76,35.25,13.16t15.87,34.06q.76,20.14-13.22,35.19T121.33,437.1Zm26.31-79.46a39.87,39.87,0,0,0-29.78-11.19q-16.94.65-28.77,13.43T77.9,389.59a39.85,39.85,0,0,0,13.43,28.83,41.14,41.14,0,0,0,58.55-2.24,41.14,41.14,0,0,0-2.24-58.54Z"/><path class="cls-3" d="M201,588.46l-20.42,14.75L176.11,597l2.49-1.8a5.75,5.75,0,0,0,1.3-8l-42-58.1a5.72,5.72,0,0,0-8-1.29l-2.5,1.8L123,523.43l13.27-9.59L186,582.73a5.73,5.73,0,0,0,8,1.29l2.49-1.8Z"/><path class="cls-4" d="M284,630.45a35.79,35.79,0,0,1,15.87,10.11,157,157,0,0,1,14.71,18.71q11,16.5,19.89,23.18l5.32-16.52a5.21,5.21,0,0,0-.44-4.34,5.67,5.67,0,0,0-3.31-2.75l-5.19-1.68,2.32-7.2,18,5.8-12.24,38-4-2.18a46.75,46.75,0,0,1-11.49-8.85,92.12,92.12,0,0,1-9-10.4q-3.3-4.59-8.34-12.25-12.13-18.46-24.39-22.42A19.23,19.23,0,0,0,257.5,650a17.76,17.76,0,0,0-.67,8q.59,5.94,7.51,8.16l-2.31,7.2-18.13-5.84,2.32-7.2,3.47,1.12a25.94,25.94,0,0,1,.65-13.91,25.53,25.53,0,0,1,13.29-15.43A25.81,25.81,0,0,1,284,630.45Z"/><path class="cls-5" d="M424.11,664.57l4.52-.59a39.91,39.91,0,0,1,27.14,6,32.13,32.13,0,0,1,7-20.46q7-9,19.92-13.19a36.3,36.3,0,0,1,26,3.3,33.37,33.37,0,0,1,17.2,20A35.06,35.06,0,0,1,527,679l-8.91,2.91a28.45,28.45,0,0,0,.62-19.79,26.88,26.88,0,0,0-13.2-15.65,28.13,28.13,0,0,0-20.41-3,33,33,0,0,0-14.68,9.2q-5.61,6.24-7.05,12.23a19.26,19.26,0,0,0,0,10.52l1.12,3.46-6.78,2.21a33,33,0,0,0-23.53-9.85l6.37,19.56a5.38,5.38,0,0,0,2.81,3.21,5.53,5.53,0,0,0,4.38.34l5.33-1.73,2.34,7.18-18,5.86Z"/><path class="cls-6" d="M634.09,521.18l20.45,14.73-4.5,6.25-2.39-1.72a5.74,5.74,0,0,0-8,1.3L632,552.31l29.08,21-70.24,38.09-7-5.08L576.56,601,581,594.9l2.5,1.8a5.73,5.73,0,0,0,8-1.3l29.87-41.46-6.59-4.75,4.42-6.13,6.59,4.74,7.61-10.56a5.74,5.74,0,0,0-1.3-8l-2.5-1.8Zm-6.48,37.26-28.81,40,48.12-26.07Z"/><path class="cls-7" d="M667.92,423.61a35.86,35.86,0,0,1,43.2-56.68l.11,9.24a27.17,27.17,0,0,0-18-6.64,29.4,29.4,0,0,0-20.2,8.23q-8.73,8.08-8.57,20.55a27.22,27.22,0,0,0,8.71,19.91,27.61,27.61,0,0,0,20.19,8.16,36.33,36.33,0,0,0,17.72-5.12l-13,38.94-31.91.39-.23-18.9,7.7-.09.06,5.6a6.08,6.08,0,0,0,1.45,4.11,5.11,5.11,0,0,0,4.08,1.56l13.44-.16,6.35-19.26a39.09,39.09,0,0,1-5.6.49A34.88,34.88,0,0,1,667.92,423.61Z"/><path class="cls-8" d="M656.71,260.82q-11.54,7.44-26.71,4.31t-23-15.25q-7.82-12.12-4.83-26.87a34.41,34.41,0,0,1,15.69-22.94,34.87,34.87,0,0,1,26.64-4.93,34.08,34.08,0,0,1,22.78,15.71,35.51,35.51,0,0,1,5.84,17.06l3.71,51.24-7.29,4.7-2.4-33.43A34.22,34.22,0,0,1,656.71,260.82ZM613,245.2a28.91,28.91,0,0,0,39.9,8.92,28.81,28.81,0,0,0,12.32-16.93q3.13-11-4-22.08a27.85,27.85,0,0,0-17.79-12.35A26.77,26.77,0,0,0,622,206.43a27.26,27.26,0,0,0-12.57,18.09Q607.07,236,613,245.2Z"/><path class="cls-9" d="M533.67,158.83,456.44,78.71l2.67-8.11,71.32,73.9,9.9-30a5.33,5.33,0,0,0-.37-4.25,5.51,5.51,0,0,0-3.33-2.87l-5.32-1.75,2.37-7.18,18,5.91Z"/><path class="cls-10" d="M315.83,83.66a34.94,34.94,0,0,1,17.35,11.46A40.62,40.62,0,0,1,354.79,79.3l3.61-1.12L371.72,121l-3.61,1.12a41.07,41.07,0,0,1-26.74-.62,36,36,0,0,1-7.91,19.33,34.81,34.81,0,0,1-17.19,11.65A35.26,35.26,0,0,1,288.82,150a35.84,35.84,0,0,1-15.15-48.66,35.91,35.91,0,0,1,42.16-17.66Zm20.28,19.22-2.66,5.86,5.77,2.84q10.35,5.22,22.86,2.37l-9.82-27.41A32.94,32.94,0,0,0,336.11,102.88ZM280,106.53a28.38,28.38,0,0,0,35.2,38.92q10.55-3.76,16-14.72T332.79,109Q328.88,98,317.67,93.12t-21.61-1.18A27.49,27.49,0,0,0,280,106.53Z"/><path class="cls-11" d="M197.28,241.12l-46.17,22.54-7.08-5L174.16,244a36,36,0,0,1-13.54-5.83q-11.77-8.32-14.33-23.36t5.61-26.57a34.52,34.52,0,0,1,23.73-14.84q14.82-2.28,26.48,6,13.24,9.39,15.16,24.13t-6.11,26.05A35.76,35.76,0,0,1,197.28,241.12Zm-31.87-9a29.41,29.41,0,0,0,21.3,4.45,26.57,26.57,0,0,0,18-11.26,28.11,28.11,0,0,0,4.81-20.95,26.09,26.09,0,0,0-11-18.46,28.16,28.16,0,0,0-21.62-5.2,26.51,26.51,0,0,0-18,11.06q-7.7,10.86-5.24,22.29A28.78,28.78,0,0,0,165.41,232.1Z"/><circle class="cls-12" cx="399.47" cy="398.67" r="184"/><circle class="cls-13" cx="399.47" cy="398.67" r="69.83"/><path class="cls-14" d="M417.49,296.71c0,10.89-8,19.75-17.88,19.75s-17.89-8.86-17.89-19.75c0-10,6.8-18.22,15.55-19.49V257.5c-6.15-1.22-10.82-7.12-10.82-14.27s4.67-13,10.82-14.27V194.63h5L401.92,229c6.17,1.21,10.84,7.12,10.84,14.27s-4.67,13-10.84,14.27v19.72c8.76,1.27,15.57,9.47,15.57,19.49m-31.78.28c0,8.38,6.17,15.2,13.76,15.2s13.76-6.82,13.76-15.2-6.17-15.2-13.76-15.2-13.76,6.81-13.76,15.2m13.76,7.78c3.89,0,7-3.47,7-7.78s-3.16-7.78-7-7.78-7.05,3.48-7.05,7.78,3.15,7.78,7.05,7.78m0,203.68c3.89,0,7-3.5,7-7.79s-3.16-7.78-7-7.78-7.05,3.46-7.05,7.78,3.15,7.79,7.05,7.79m-2.2,94.26V568.28c-6.15-1.23-10.82-7.13-10.82-14.27s4.67-13,10.82-14.26V520c-8.75-1.27-15.55-9.48-15.55-19.49,0-10.89,8-19.75,17.89-19.75s17.88,8.86,17.88,19.75c0,10-6.81,18.23-15.57,19.49v19.72c6.17,1.21,10.84,7.11,10.84,14.27s-4.67,13.06-10.84,14.27l.34,34.35m-16.55-102c0,8.39,6.17,15.2,13.76,15.2s13.76-6.81,13.76-15.2-6.17-15.2-13.76-15.2-13.76,6.82-13.76,15.2m26-101.84c0,7.42-5.46,13.44-12.18,13.44s-12.18-6-12.18-13.44,5.46-13.44,12.18-13.44,12.18,6,12.18,13.44m-20.23,0c0,4.9,3.61,8.88,8.05,8.88s8-4,8-8.88-3.61-8.88-8-8.88-8.05,4-8.05,8.88M423.69,465c-11.5,3.11-16.22-13-17.74-18.12A202.7,202.7,0,0,1,402,426.44a23.11,23.11,0,0,1-5.08,0c-.49,4.9-3.23,18.07-3.93,20.43-1.53,5.11-6.26,21.23-17.75,18.12-10.14-2.75-5.91-13.91-5.91-13.91,3-7.79,9.82-6.21,13.69-2.24,4.47,4.55,6.14-4.44,7.87-15,.77-4.83.13-7.61-.73-9.23-9.27-4.11-15.84-14.11-15.84-25.79s6.57-21.66,15.84-25.75c.86-1.62,1.5-4.4.73-9.22-1.73-10.58-3.4-19.57-7.87-15-3.87,4-10.74,5.54-13.69-2.24,0,0-4.23-11.15,5.91-13.91,11.49-3.12,16.22,13,17.75,18.11.7,2.37,3.44,15.54,3.93,20.43a23.11,23.11,0,0,1,5.08,0A203.25,203.25,0,0,1,406,350.77c1.52-5.1,6.24-21.23,17.74-18.11,10.14,2.76,5.91,13.91,5.91,13.91-3,7.78-9.83,6.21-13.69,2.24-4.46-4.55-6.14,4.44-7.86,15-.78,4.82-.15,7.59.72,9.22,9.28,4.09,15.86,14.08,15.86,25.75s-6.58,21.69-15.86,25.79c-.87,1.63-1.5,4.41-.72,9.23,1.72,10.58,3.4,19.57,7.86,15,3.86-4,10.73-5.55,13.69,2.24,0,0,4.23,11.16-5.91,13.91M378.47,398.8c0,12.8,9.42,23.22,21,23.22s21-10.42,21-23.22-9.43-23.17-21-23.17-21,10.39-21,23.17"/><path class="cls-14" d="M297.51,380.65c10.89,0,19.75,8,19.75,17.88s-8.86,17.89-19.75,17.89c-10,0-18.22-6.8-19.49-15.55H258.3c-1.22,6.14-7.12,10.82-14.27,10.82S231,407,229.76,400.87H200.27v-5l29.48.34c1.22-6.17,7.13-10.84,14.28-10.84s13,4.67,14.27,10.84H278c1.26-8.76,9.47-15.57,19.49-15.57m.27,31.78c8.39,0,15.21-6.17,15.21-13.76s-6.82-13.76-15.21-13.76-15.19,6.17-15.19,13.76,6.81,13.76,15.19,13.76m7.79-13.76c0-3.9-3.48-7.05-7.79-7.05s-7.78,3.15-7.78,7.05,3.49,7.05,7.78,7.05,7.79-3.15,7.79-7.05m203.67,0c0-3.9-3.49-7.05-7.78-7.05s-7.79,3.15-7.79,7.05,3.47,7.05,7.79,7.05,7.78-3.15,7.78-7.05m89,2.2H569.08c-1.23,6.14-7.14,10.82-14.27,10.82s-13-4.68-14.26-10.82H520.82c-1.28,8.75-9.48,15.55-19.49,15.55-10.89,0-19.75-8-19.75-17.89s8.86-17.88,19.75-17.88c10,0,18.22,6.81,19.49,15.57h19.72c1.21-6.17,7.11-10.84,14.27-10.84s13.06,4.67,14.27,10.84l29.19-.34m-96.81,16.55c8.38,0,15.19-6.17,15.19-13.76s-6.81-13.76-15.19-13.76-15.2,6.17-15.2,13.76,6.81,13.76,15.2,13.76M399.62,386.48c7.42,0,13.44,5.46,13.44,12.18s-6,12.18-13.44,12.18-13.44-5.46-13.44-12.18,6-12.18,13.44-12.18m0,20.22c4.9,0,8.87-3.61,8.87-8s-4-8.05-8.87-8.05-8.88,3.61-8.88,8.05,4,8,8.88,8m66.16-32.25c3.11,11.5-13,16.22-18.11,17.74a206.12,206.12,0,0,1-20.43,3.94,21.39,21.39,0,0,1,.14,2.54,21.1,21.1,0,0,1-.14,2.53c4.9.5,18.06,3.24,20.43,3.94,5.11,1.53,21.22,6.26,18.11,17.75-2.74,10.14-13.9,5.91-13.9,5.91-7.79-2.95-6.21-9.83-2.24-13.69,4.55-4.47-4.44-6.15-15-7.87-4.82-.78-7.6-.13-9.22.73-4.11,9.27-14.11,15.84-25.8,15.84s-21.65-6.57-25.74-15.84c-1.62-.86-4.4-1.51-9.22-.73-10.59,1.72-19.58,3.4-15,7.87,4,3.86,5.54,10.74-2.24,13.69,0,0-11.16,4.23-13.91-5.91-3.12-11.49,13-16.22,18.11-17.75,2.37-.7,15.53-3.44,20.43-3.94a23.4,23.4,0,0,1-.14-2.53,23.73,23.73,0,0,1,.14-2.54,206.12,206.12,0,0,1-20.43-3.94c-5.1-1.52-21.23-6.24-18.11-17.74,2.75-10.14,13.91-5.91,13.91-5.91,7.78,3,6.2,9.83,2.24,13.69-4.56,4.46,4.43,6.14,15,7.86,4.82.78,7.59.15,9.21-.72,4.1-9.28,14.09-15.86,25.75-15.86s21.7,6.58,25.8,15.86c1.62.87,4.41,1.5,9.22.72,10.59-1.72,19.58-3.4,15-7.86-4-3.86-5.55-10.73,2.24-13.69,0,0,11.16-4.23,13.9,5.91m-66.19,45.22c12.81,0,23.23-9.42,23.23-21s-10.42-21-23.23-21-23.17,9.43-23.17,21,10.4,21,23.17,21"/></g></g></svg>