<svg xmlns="http://www.w3.org/2000/svg" xmlns:xlink="http://www.w3.org/1999/xlink" viewBox="0 0 798.94 797.34"><defs><style>.cls-1{fill:#333;stroke:#000;}.cls-1,.cls-12{stroke-miterlimit:10;}.cls-2{fill:url(#Brass_Radial);}.cls-3{fill:url(#Brass_Radial-2);}.cls-4{fill:url(#Brass_Radial-3);}.cls-5{fill:url(#Brass_Radial-4);}.cls-6{fill:url(#Brass_Radial-5);}.cls-7{fill:url(#Brass_Radial-6);}.cls-8{fill:url(#Brass_Radial-7);}.cls-9{fill:url(#Brass_Radial-8);}.cls-10{fill:url(#Brass_Radial-9);}.cls-11{fill:url(#Brass_Radial-10);}.cls-12{fill:none;stroke-width:30px;stroke:url(#Brass_Radial-11);}.cls-13{fill:url(#Brass_Radial-12);}.cls-14{fill:#1a1a1a;}</style><radialGradient id="Brass_Radial" cx="247.9" cy="-28.83" r="49.18" gradientTransform="translate(927.32 359.17) rotate(180)" gradientUnits="userSpaceOnUse"><stop offset="0.18" stop-color="#f8f0e4"/><stop offset="0.59" stop-color="#f2d78f"/><stop offset="1" stop-color="#c58511"/></radialGradient><radialGradient id="Brass_Radial-2" cx="579.63" cy="141.57" r="41.95" gradientTransform="matrix(1, -0.04, 0.04, 1, 50.43, 436.76)" xlink:href="#Brass_Radial"/><radialGradient id="Brass_Radial-3" cx="667.14" cy="331.21" r="44.42" gradientTransform="matrix(1, 0.05, -0.05, 1, -151.92, 294.41)" xlink:href="#Brass_Radial"/><radialGradient id="Brass_Radial-4" cx="663.22" cy="533.05" r="42.36" gradientTransform="translate(-291.03 83.18) rotate(5)" xlink:href="#Brass_Radial"/><radialGradient id="Brass_Radial-5" cx="541.63" cy="704.37" r="42.35" gradientTransform="matrix(0.99, 0.11, -0.11, 0.99, -300.2, -176.9)" xlink:href="#Brass_Radial"/><radialGradient id="Brass_Radial-6" cx="368.82" cy="763.24" r="41.24" gradientTransform="matrix(0.99, 0.13, -0.13, 0.99, -160.22, -396.42)" xlink:href="#Brass_Radial"/><radialGradient id="Brass_Radial-7" cx="205.81" cy="715.05" r="41.91" gradientTransform="matrix(0.98, 0.18, -0.18, 0.98, 88.66, -501.57)" xlink:href="#Brass_Radial"/><radialGradient id="Brass_Radial-8" cx="94.5" cy="558.82" r="44.54" gradientTransform="translate(273.14 -432.43) rotate(6.86)" xlink:href="#Brass_Radial"/><radialGradient id="Brass_Radial-9" cx="98.37" cy="346.62" r="44.12" gradientTransform="translate(408.74 -236.56) rotate(4.65)" xlink:href="#Brass_Radial"/><radialGradient id="Brass_Radial-10" cx="209.47" cy="174.92" r="41.62" gradientTransform="translate(418.65 32.97) rotate(2.18)" xlink:href="#Brass_Radial"/><radialGradient id="Brass_Radial-11" cx="397.63" cy="240.51" r="199" gradientTransform="translate(639.97 1.04) rotate(90)" xlink:href="#Brass_Radial"/><radialGradient id="Brass_Radial-12" cx="397.63" cy="240.51" r="69.83" gradientTransform="translate(639.97 1.04) rotate(90)" xlink:href="#Brass_Radial"/></defs><g id="Layer_2" data-name="Layer 2"><g id="Layer_1-2" data-name="Layer 1"><path class="cls-1" d="M624.44,723.79l-19.39,16.27c-29.59,22.59-64.19,34.13-98.39,46.56-18.93,6.87-33.77,9.22-34.78-16.89-.35-9.12-5.35-11.44-14.39-9.73-39,7.38-78,9.66-117,3.5C331,762,328.2,767,325.76,774.81c-7.66,24.58-8.26,24.51-33.83,19.14-39.21-8.24-73.67-27.13-108.89-44.36-11.57-5.66-13.44-14.28-5.81-24.48,9.43-12.59,6.29-20.8-5.67-29-25.23-17.34-45.32-40-64.37-63.75-14.25-17.75-14.59-17.49-35.81-6.17a17.13,17.13,0,0,1-8.58,2.09L49.29,612.17C25,580,14.22,541.73,3.18,503.64-2,485.75-.87,483.2,17.4,479.11c12.56-2.81,16.64-8.27,14.82-21C26.9,420.64,26.4,383,34.45,345.29c2-9.26-1-13.88-10-17-18.47-6.43-19.7-9.95-14.77-28.72C20.05,259.9,40.76,224.72,61,189.37c6.28-11,14.83-15.65,26.42-7.51,8.51,6,15.42,3.27,21.33-4.71,18.78-25.33,42-46.29,66.95-65.25,12.68-9.64,19.56-19.14,9.55-33.82-1.65-2.42-1.43-5.63-1.3-8.6l2.77-2.32c6.82-.94,10.06-7.18,15.28-10.47,32.8-29.24,74.4-37.8,114.11-50.64,9.71-3.14,16.44,2.12,18.45,11.41,2.91,13.51,11.24,16,23.67,13.74,30.22-5.39,60.48-5.08,90.59-1.61C460.64,31,468.18,28.24,470.67,15c2.3-12.2,10.79-16.12,22.77-14C537.05,8.81,576.24,27.33,615,46.88c10.43,5.27,10,13.93,3.72,22.27-8.38,11.2-4.26,17.39,5.64,24.18,24.64,16.91,47.12,36.52,65.43,60.14,9.63,12.42,18.75,20.57,34.77,9.16,2.43-1.73,5.8-1,8.77-1l15.75,18.78c22.75,30.2,35.13,65.33,45.94,101.18,5.78,19.16,5.54,20.33-13.84,26.83-10.58,3.55-14.51,9-12.62,19.78,6.38,36.24,5.55,72.81.09,109.42-2,13.62,1.27,21.65,16.44,22.31C796.37,460.4,800,467,797.82,478c-9.15,45.61-30,86.66-53.43,126.61-6.37,10.85-15.46,7.57-23.07,2.36-11.11-7.61-18-5.5-26.16,6-18.14,25.63-40.93,47.11-65.53,66.77-18.46,14.75-18.16,15.16-7.06,35.54A15.64,15.64,0,0,1,624.44,723.79Z"/><path class="cls-2" d="M643.47,421.3q-14-15-13.22-35.19t15.87-34.06q15.11-13.94,35.25-13.16a47.31,47.31,0,0,1,34.07,15.81q13.92,15,13.15,35.18T712.79,424q-15,13.92-35.18,13.15T643.47,421.3Zm-5.53-34.89a41.58,41.58,0,0,0,83.1,3.18q.65-16.93-11.19-29.71t-28.77-13.43a42,42,0,0,0-43.14,40Z"/><path class="cls-3" d="M619.66,603l-20.35-14.87,4.55-6.22,2.48,1.82a5.73,5.73,0,0,0,8-1.25l42.3-57.87a5.73,5.73,0,0,0-1.25-8l-2.49-1.82,4.46-6.1,13.23,9.66L620.47,587a5.54,5.54,0,0,0-1,4.27,5.46,5.46,0,0,0,2.29,3.75l2.48,1.82Z"/><path class="cls-4" d="M529.71,675.78a35.83,35.83,0,0,1-18.77,1.14,155.79,155.79,0,0,1-22.9-6.49q-18.62-6.87-29.72-7.06l5.4,16.5a5.25,5.25,0,0,0,2.91,3.24,5.73,5.73,0,0,0,4.29.29l5.19-1.7,2.36,7.18-18,5.89-12.43-37.92,4.52-.59a46.88,46.88,0,0,1,14.5.4,91.52,91.52,0,0,1,13.4,3.13q5.37,1.77,13.94,5,20.69,7.82,32.92,3.81a19.24,19.24,0,0,0,12.25-24.2,17.79,17.79,0,0,0-4.17-6.89q-4-4.44-10.88-2.18l-2.35-7.18,18.09-5.93,2.36,7.18-3.46,1.14a25.89,25.89,0,0,1,7.64,11.64,25.49,25.49,0,0,1-1.67,20.29A25.89,25.89,0,0,1,529.71,675.78Z"/><path class="cls-5" d="M360.66,708.17l-4-2.18a40,40,0,0,1-18.42-20.84,32,32,0,0,1-17.65,12.46q-10.95,3.15-23.87-1a36.27,36.27,0,0,1-19.12-18,33.38,33.38,0,0,1-2.15-26.3A35.19,35.19,0,0,1,285.9,636l8.92,2.89a28.4,28.4,0,0,0-12.13,15.65,26.79,26.79,0,0,0,1.48,20.42,28.14,28.14,0,0,0,14.75,14.42,33.07,33.07,0,0,0,17.28,1.18q8.21-1.75,12.9-5.75a19.3,19.3,0,0,0,6.15-8.54l1.12-3.46,6.79,2.2a33,33,0,0,0,13.24,21.81l6.35-19.58a5.38,5.38,0,0,0-.39-4.25A5.55,5.55,0,0,0,359,670.1l-5.32-1.72,2.33-7.19L374,667Z"/><path class="cls-6" d="M123.21,551.43l20.32-14.89,4.56,6.21-2.38,1.74a5.73,5.73,0,0,0-1.23,8l7.69,10.5,28.91-21.18,14.53,78.57-7,5.13-7.22,5.29-4.47-6.1,2.48-1.82a5.74,5.74,0,0,0,1.24-8l-30.2-41.22-6.55,4.8-4.47-6.1,6.55-4.8-7.69-10.5a5.75,5.75,0,0,0-8-1.24l-2.48,1.82Zm33.43,17.68,29.13,39.75L175.84,555Z"/><path class="cls-7" d="M89.73,420.61A35.5,35.5,0,0,1,89,369.86a35.3,35.3,0,0,1,43.89-5.93l.11,9.24a27.17,27.17,0,0,0-18-6.64,29.4,29.4,0,0,0-20.2,8.23q-8.73,8.08-8.57,20.55A27.22,27.22,0,0,0,95,415.22a27.61,27.61,0,0,0,20.19,8.16,36.33,36.33,0,0,0,17.72-5.12l-13,38.94L88,457.59l-.23-18.9,7.7-.09.07,5.6A6,6,0,0,0,97,448.31a5.08,5.08,0,0,0,4.08,1.56l13.43-.16,6.35-19.26a39.07,39.07,0,0,1-5.59.49A34.89,34.89,0,0,1,89.73,420.61Z"/><path class="cls-8" d="M142.33,256q-10.72-8.55-12.62-23.93t7.09-26.66q9-11.28,23.92-13.17a34.39,34.39,0,0,1,26.75,7.53,34.9,34.9,0,0,1,13.2,23.67,34.12,34.12,0,0,1-7.6,26.61,35.42,35.42,0,0,1-14.3,11l-47.36,19.91-6.79-5.4,30.91-13A34.43,34.43,0,0,1,142.33,256Zm.82-46.42a28.93,28.93,0,0,0,4.31,40.65,28.81,28.81,0,0,0,20,6.26q11.45-.56,19.64-10.84a27.88,27.88,0,0,0,6-20.81,26.79,26.79,0,0,0-10.34-19.15,27.27,27.27,0,0,0-21.16-6.12Q150,201,143.15,209.56Z"/><path class="cls-9" d="M246.45,100.93,356,120.36l2.6,8.13L257.5,110.63l9.65,30.13A5.41,5.41,0,0,0,270,144a5.57,5.57,0,0,0,4.38.36l5.33-1.71,2.31,7.2-18,5.77Z"/><path class="cls-10" d="M504.06,83.72a35.37,35.37,0,0,1,21.21,17.6A35.84,35.84,0,0,1,510.12,150a35.26,35.26,0,0,1-27.45,2.45,34.81,34.81,0,0,1-17.19-11.65,36.13,36.13,0,0,1-7.92-19.33,41,41,0,0,1-26.73.62L427.22,121l13.32-42.77,3.61,1.12a40.66,40.66,0,0,1,21.61,15.82,36.1,36.1,0,0,1,38.3-11.4Zm-57.39,2.82L436.86,114q12.51,2.85,22.85-2.37l5.78-2.84-2.66-5.86A32.92,32.92,0,0,0,446.67,86.54Zm56.21,5.4q-10.41-3.73-21.61,1.18T466.15,109q-3.87,10.82,1.58,21.76t16,14.72a28.36,28.36,0,0,0,35.2-38.92A27.44,27.44,0,0,0,502.88,91.94Z"/><path class="cls-11" d="M653,203.85l7.17,50.88-7,5.18-4.65-33.19a36.14,36.14,0,0,1-9.73,11.08q-11.56,8.61-26.65,6.41T588.6,230.66a34.53,34.53,0,0,1-6.78-27.16q2.41-14.79,13.87-23.33,13-9.71,27.63-7t22.89,13.85A35.82,35.82,0,0,1,653,203.85Zm-18.43,27.52a29.35,29.35,0,0,0,10.82-18.87,26.64,26.64,0,0,0-5.14-20.62,28.18,28.18,0,0,0-18.45-11,26.1,26.1,0,0,0-21,4.79,28.18,28.18,0,0,0-11.62,19,26.49,26.49,0,0,0,4.94,20.58q7.95,10.67,19.57,11.87A28.73,28.73,0,0,0,634.52,231.37Z"/><circle class="cls-12" cx="399.47" cy="398.67" r="184"/><circle class="cls-13" cx="399.47" cy="398.67" r="69.83"/><path class="cls-14" d="M381.44,296.71c0-10,6.81-18.22,15.57-19.49V257.5c-6.16-1.22-10.84-7.11-10.84-14.27S390.85,230.17,397,229l-.34-34.33h5V229c6.15,1.22,10.83,7.13,10.83,14.27s-4.68,13-10.83,14.27v19.72c8.76,1.27,15.56,9.48,15.56,19.49,0,10.89-8,19.75-17.89,19.75s-17.89-8.86-17.89-19.75m31.79.28c0-8.39-6.17-15.2-13.76-15.2S385.7,288.6,385.7,297s6.18,15.2,13.77,15.2,13.76-6.82,13.76-15.2m-13.76,7.78c3.89,0,7-3.47,7-7.78s-3.16-7.78-7-7.78-7.05,3.48-7.05,7.78,3.15,7.78,7.05,7.78m0,203.68c3.89,0,7-3.5,7-7.79s-3.16-7.78-7-7.78-7.05,3.46-7.05,7.78,3.15,7.79,7.05,7.79m-2.8,94.18.34-34.35c-6.16-1.21-10.84-7.12-10.84-14.27S390.85,541,397,539.74V520c-8.76-1.26-15.57-9.47-15.57-19.49,0-10.89,8-19.75,17.89-19.75s17.89,8.86,17.89,19.75c0,10-6.8,18.22-15.56,19.49v19.73c6.15,1.21,10.83,7.11,10.83,14.26s-4.68,13-10.83,14.27v34.43m11.57-102.05c0-8.38-6.17-15.2-13.76-15.2s-13.77,6.82-13.77,15.2,6.18,15.2,13.77,15.2,13.76-6.81,13.76-15.2m-26-101.84c0-7.41,5.47-13.44,12.19-13.44s12.18,6,12.18,13.44-5.47,13.44-12.18,13.44-12.19-6-12.19-13.44m20.23,0c0-4.89-3.61-8.88-8-8.88s-8,4-8,8.88,3.61,8.88,8,8.88,8-4,8-8.88M375.25,465c-10.15-2.75-5.91-13.91-5.91-13.91,3-7.79,9.82-6.21,13.69-2.24,4.46,4.55,6.14-4.44,7.86-15,.78-4.82.14-7.6-.73-9.23-9.28-4.1-15.85-14.1-15.85-25.79s6.58-21.66,15.85-25.75c.87-1.63,1.51-4.4.73-9.22-1.72-10.58-3.4-19.57-7.86-15-3.87,4-10.74,5.54-13.69-2.24,0,0-4.24-11.15,5.91-13.91,11.5-3.12,16.21,13,17.74,18.11a206.12,206.12,0,0,1,3.94,20.43,23,23,0,0,1,5.07,0c.49-4.89,3.24-18.06,3.94-20.43,1.53-5.1,6.25-21.23,17.74-18.11,10.15,2.76,5.92,13.91,5.92,13.91-3,7.78-9.83,6.21-13.69,2.24-4.47-4.55-6.15,4.44-7.87,15-.78,4.82-.14,7.6.73,9.22,9.27,4.09,15.84,14.08,15.84,25.75s-6.57,21.68-15.84,25.79c-.87,1.62-1.51,4.4-.73,9.23,1.72,10.58,3.4,19.57,7.87,15,3.86-4,10.73-5.55,13.69,2.24,0,0,4.23,11.16-5.92,13.91-11.49,3.11-16.21-13-17.74-18.12-.7-2.36-3.45-15.53-3.94-20.43a23,23,0,0,1-5.07,0A205.55,205.55,0,0,1,393,446.87c-1.53,5.11-6.24,21.23-17.74,18.12m45.22-66.19c0-12.78-9.42-23.17-21-23.17s-21,10.39-21,23.17,9.44,23.22,21,23.22,21-10.42,21-23.22"/><path class="cls-14" d="M501.43,380.65c10,0,18.22,6.81,19.49,15.57h19.71c1.23-6.17,7.12-10.84,14.28-10.84s13.06,4.67,14.27,10.84l29.49-.34v5H569.18C568,407,562,411.69,554.91,411.69s-13-4.68-14.28-10.82H520.92c-1.28,8.75-9.48,15.55-19.49,15.55-10.89,0-19.75-8-19.75-17.89s8.86-17.88,19.75-17.88m-.28,31.78c8.38,0,15.2-6.17,15.2-13.76s-6.82-13.76-15.2-13.76S486,391.08,486,398.67s6.82,13.76,15.2,13.76m-7.78-13.76c0,3.9,3.47,7.05,7.78,7.05s7.78-3.15,7.78-7.05-3.48-7.05-7.78-7.05-7.78,3.15-7.78,7.05m-203.68,0c0,3.9,3.5,7.05,7.79,7.05s7.78-3.15,7.78-7.05-3.47-7.05-7.78-7.05-7.79,3.15-7.79,7.05m-89-2.79,29.19.34c1.21-6.17,7.12-10.84,14.27-10.84s13.06,4.67,14.27,10.84h19.72c1.26-8.76,9.47-15.57,19.49-15.57,10.89,0,19.75,8,19.75,17.88s-8.86,17.89-19.75,17.89c-10,0-18.22-6.8-19.49-15.55H258.39c-1.21,6.14-7.11,10.82-14.26,10.82s-13-4.68-14.27-10.82H200.67m96.81,11.56c8.38,0,15.2-6.17,15.2-13.76s-6.82-13.76-15.2-13.76-15.2,6.17-15.2,13.76,6.81,13.76,15.2,13.76m101.84-25.95c7.41,0,13.44,5.46,13.44,12.18s-6,12.18-13.44,12.18-13.44-5.46-13.44-12.18,6-12.18,13.44-12.18m0,20.22c4.89,0,8.87-3.61,8.87-8s-4-8.05-8.87-8.05-8.88,3.61-8.88,8.05,4,8,8.88,8m-66.17-32.25c2.75-10.14,13.91-5.91,13.91-5.91,7.79,3,6.21,9.83,2.24,13.69-4.55,4.46,4.44,6.14,15,7.86,4.82.78,7.6.15,9.23-.72,4.1-9.28,14.1-15.86,25.79-15.86s21.66,6.58,25.75,15.86c1.62.87,4.4,1.5,9.22.72,10.58-1.72,19.57-3.4,15-7.86-4-3.86-5.54-10.73,2.24-13.69,0,0,11.15-4.23,13.91,5.91,3.11,11.5-13,16.22-18.11,17.74a205.81,205.81,0,0,1-20.44,3.94,21.38,21.38,0,0,1,.15,2.54,21.09,21.09,0,0,1-.15,2.53c4.9.5,18.07,3.24,20.44,3.94,5.1,1.53,21.22,6.26,18.11,17.75-2.76,10.14-13.91,5.91-13.91,5.91-7.78-2.95-6.21-9.83-2.24-13.69,4.55-4.47-4.44-6.15-15-7.87-4.82-.78-7.6-.13-9.22.73-4.09,9.27-14.08,15.84-25.75,15.84s-21.68-6.57-25.79-15.84c-1.62-.86-4.4-1.51-9.23-.73-10.58,1.72-19.57,3.4-15,7.87,4,3.86,5.55,10.74-2.24,13.69,0,0-11.16,4.23-13.91-5.91-3.11-11.49,13-16.22,18.12-17.75,2.36-.7,15.53-3.44,20.43-3.94a21.1,21.1,0,0,1-.14-2.53,21.39,21.39,0,0,1,.14-2.54,205.55,205.55,0,0,1-20.43-3.94c-5.11-1.52-21.23-6.24-18.12-17.74m66.19,45.22c12.77,0,23.17-9.42,23.17-21s-10.4-21-23.17-21-23.22,9.43-23.22,21,10.42,21,23.22,21"/></g></g></svg>