<svg xmlns="http://www.w3.org/2000/svg" xmlns:xlink="http://www.w3.org/1999/xlink" viewBox="0 0 349.78 349.08"><defs><style>.cls-1{fill:#333;stroke:#000;stroke-miterlimit:10;stroke-width:3px;}.cls-2{fill:url(#Pewter);}.cls-3{fill:url(#Pewter-2);}.cls-4{fill:url(#Pewter-3);}.cls-5{fill:url(#Pewter-4);}.cls-6{fill:url(#Pewter-5);}.cls-7{fill:url(#Pewter-6);}.cls-8{fill:url(#Pewter-7);}.cls-9{fill:url(#Pewter-8);}.cls-10{fill:url(#Pewter-9);}.cls-11{fill:url(#Pewter-10);}</style><linearGradient id="Pewter" x1="-1720.96" y1="-952.18" x2="-1660.01" y2="-952.18" gradientTransform="matrix(1, 0, 0, -1, 1746.71, -782.28)" gradientUnits="userSpaceOnUse"><stop offset="0.03" stop-color="#a8a7a3"/><stop offset="0.13" stop-color="#b1b1b2"/><stop offset="0.22" stop-color="#bbbcc2"/><stop offset="0.35" stop-color="#acafb4"/><stop offset="0.6" stop-color="#858c90"/><stop offset="0.72" stop-color="#71797d"/><stop offset="1" stop-color="#9aa0a4"/></linearGradient><linearGradient id="Pewter-2" x1="-182.17" y1="-19.36" x2="-133.98" y2="-19.36" gradientTransform="translate(132.76 97.67) rotate(-74.2)" xlink:href="#Pewter"/><linearGradient id="Pewter-3" x1="-306.55" y1="-432.31" x2="-241.55" y2="-432.31" gradientTransform="matrix(-0.78, -0.63, 0.63, -0.78, 189.59, -218.69)" xlink:href="#Pewter"/><linearGradient id="Pewter-4" x1="92.18" y1="-592.33" x2="157.62" y2="-592.33" gradientTransform="translate(9.96 -278.57) rotate(149)" xlink:href="#Pewter"/><linearGradient id="Pewter-5" x1="381.25" y1="-132.46" x2="433.16" y2="-132.46" gradientTransform="translate(56.01 -125.17) rotate(78.39)" xlink:href="#Pewter"/><linearGradient id="Pewter-6" x1="7.08" y1="399.33" x2="44.31" y2="399.33" gradientTransform="translate(325.12 -219.02) rotate(7.53)" xlink:href="#Pewter"/><linearGradient id="Pewter-7" x1="-765.89" y1="277.38" x2="-719.05" y2="277.38" gradientTransform="translate(401.17 -680.98) rotate(-61.03)" xlink:href="#Pewter"/><linearGradient id="Pewter-8" x1="-1017.99" y1="-530.89" x2="-943.24" y2="-530.89" gradientTransform="translate(-133.95 -1014.14) rotate(-137.14)" xlink:href="#Pewter"/><linearGradient id="Pewter-9" x1="-695.06" y1="234.12" x2="-628.65" y2="234.12" gradientTransform="matrix(-1, 0.08, 0.08, 1, -538.26, -127.38)" xlink:href="#Pewter"/><linearGradient id="Pewter-10" x1="325.32" y1="-752.64" x2="377.79" y2="-752.64" gradientTransform="translate(-743.12 -39.17) rotate(74.18)" xlink:href="#Pewter"/></defs><g id="Layer_2" data-name="Layer 2"><g id="Layer_3" data-name="Layer 3"><path class="cls-1" d="M77.12,315.84l8.43,7.07c12.85,9.82,27.89,14.83,42.75,20.23,8.23,3,14.68,4,15.12-7.34.15-4,2.32-5,6.25-4.23,16.94,3.21,33.91,4.2,50.84,1.52,4.13-.65,5.35,1.52,6.41,4.92,3.33,10.68,3.59,10.65,14.71,8.32,17-3.58,32-11.79,47.32-19.28,5-2.46,5.84-6.21,2.52-10.64-4.09-5.47-2.73-9,2.47-12.61,11-7.54,19.69-17.4,28-27.71,6.19-7.71,6.34-7.6,15.56-2.68a7.38,7.38,0,0,0,3.73.91l5.87-7c10.57-14,15.25-30.62,20-47.17,2.25-7.77,1.77-8.88-6.18-10.66-5.45-1.22-7.23-3.59-6.44-9.14,2.32-16.27,2.53-32.65-1-49-.86-4,.45-6,4.36-7.4,8-2.8,8.57-4.33,6.43-12.48-4.53-17.24-13.53-32.53-22.34-47.89-2.73-4.76-6.44-6.8-11.48-3.26-3.7,2.59-6.7,1.42-9.27-2-8.16-11-18.25-20.12-29.1-28.36-5.51-4.19-8.49-8.31-4.15-14.69a6.14,6.14,0,0,0,.57-3.74l-1.2-1c-3-.41-4.38-3.12-6.65-4.55-14.25-12.71-32.33-16.43-49.59-22-4.22-1.36-7.14.92-8,5-1.27,5.87-4.89,6.94-10.29,6-13.14-2.34-26.29-2.21-39.37-.7-5.13.59-8.4-.59-9.49-6.32-1-5.3-4.68-7-9.89-6.08-19,3.37-36,11.42-52.83,19.92-4.53,2.29-4.33,6.05-1.62,9.68,3.65,4.86,1.85,7.55-2.45,10.5C66.44,49.19,56.67,57.71,48.72,68c-4.19,5.4-8.15,8.94-15.12,4-1.05-.75-2.51-.45-3.8-.44L23,79.68c-9.89,13.12-15.27,28.39-20,44C.47,132,.58,132.49,9,135.31c4.6,1.55,6.3,3.93,5.48,8.6-2.77,15.75-2.41,31.64,0,47.55.88,5.92-.56,9.41-7.15,9.7-4.9.21-6.5,3.08-5.53,7.87,4,19.83,13,37.67,23.22,55,2.77,4.71,6.72,3.29,10,1,4.83-3.3,7.84-2.38,11.37,2.62,7.89,11.13,17.79,20.47,28.48,29,8,6.41,7.89,6.58,3.07,15.44A6.73,6.73,0,0,0,77.12,315.84Z"/><path class="cls-2" d="M57.34,200.31a29.25,29.25,0,0,1-21.78-8.14,30.14,30.14,0,0,1-1.64-42.89A29.31,29.31,0,0,1,55,139.49a29.47,29.47,0,0,1,21.83,8.15,30,30,0,0,1,1.64,42.89A29.43,29.43,0,0,1,57.34,200.31Zm16.3-49.21a25.38,25.38,0,0,0-36.26,1.39,25.39,25.39,0,0,0,1.39,36.26A25.48,25.48,0,0,0,75,187.36a25.5,25.5,0,0,0-1.39-36.26Z"/><path class="cls-3" d="M97.14,263.53l-13.32,9.62-2.94-4.07,1.63-1.18a3.61,3.61,0,0,0,1.5-2.44,3.55,3.55,0,0,0-.66-2.78L56,224.8a3.73,3.73,0,0,0-5.23-.84l-1.62,1.17-2.89-4,8.66-6.26,32.43,44.91a3.73,3.73,0,0,0,5.23.84l1.63-1.17Z"/><path class="cls-4" d="M121.74,268.54a23.29,23.29,0,0,1,10.34,6.59,101.51,101.51,0,0,1,9.59,12.2q7.19,10.76,13,15.11l3.47-10.77a3.39,3.39,0,0,0-.29-2.83,3.7,3.7,0,0,0-2.15-1.79l-3.39-1.1,1.51-4.69L165.52,285l-8,24.76-2.61-1.42a30.4,30.4,0,0,1-7.49-5.77,59.72,59.72,0,0,1-5.87-6.78c-1.43-2-3.25-4.66-5.43-8q-7.92-12-15.91-14.62a12.52,12.52,0,0,0-15.73,8.07,11.48,11.48,0,0,0-.44,5.22q.39,3.87,4.9,5.32l-1.51,4.69-11.82-3.8L97.15,288l2.25.72a16.94,16.94,0,0,1,.43-9.06,17.53,17.53,0,0,1,21.91-11.16Z"/><path class="cls-5" d="M174.32,288.81l3-.38A26,26,0,0,1,195,292.36,20.9,20.9,0,0,1,199.5,279a26.1,26.1,0,0,1,13-8.6,23.59,23.59,0,0,1,17,2.15,21.72,21.72,0,0,1,11.22,13.05,22.89,22.89,0,0,1,.75,12.61l-5.82,1.9a18.49,18.49,0,0,0,.41-12.9A17.48,17.48,0,0,0,227.4,277a18.31,18.31,0,0,0-13.3-2,21.48,21.48,0,0,0-9.57,6,18.91,18.91,0,0,0-4.6,8,12.57,12.57,0,0,0,0,6.85l.73,2.26-4.42,1.44a21.54,21.54,0,0,0-15.34-6.42l4.16,12.75a3.49,3.49,0,0,0,1.83,2.09,3.59,3.59,0,0,0,2.85.22l3.47-1.13,1.53,4.69-11.71,3.82Z"/><path class="cls-6" d="M280.17,218l13.33,9.6-2.94,4.07L289,230.54a3.65,3.65,0,0,0-2.79-.66,3.6,3.6,0,0,0-2.43,1.51l-5,6.89,19,13.66L252,276.77l-4.59-3.31L242.67,270l2.88-4,1.63,1.17a3.73,3.73,0,0,0,5.22-.85l19.47-27-4.29-3.09,2.88-4,4.29,3.09,5-6.88a3.74,3.74,0,0,0-.85-5.23l-1.62-1.17Zm-4.23,24.29-18.77,26.06,31.36-17Z"/><path class="cls-7" d="M288.05,188.07a23.37,23.37,0,0,1,28.16-36.94l.07,6a17.68,17.68,0,0,0-11.73-4.33,19.12,19.12,0,0,0-13.17,5.37,17.13,17.13,0,0,0-5.59,13.39,17.74,17.74,0,0,0,5.68,13,18,18,0,0,0,13.16,5.32,23.6,23.6,0,0,0,11.55-3.34l-8.45,25.39-20.8.25-.16-12.32,5-.06,0,3.65a4,4,0,0,0,.94,2.68,3.35,3.35,0,0,0,2.66,1l8.76-.11,4.14-12.55a26.32,26.32,0,0,1-3.65.32A22.73,22.73,0,0,1,288.05,188.07Z"/><path class="cls-8" d="M290.51,119.35q-7.51,4.84-17.41,2.81a22.38,22.38,0,0,1-15-9.94A22.82,22.82,0,0,1,255,94.7a22.37,22.37,0,0,1,10.23-15,22.66,22.66,0,0,1,17.36-3.21,22.23,22.23,0,0,1,14.86,10.24,23.18,23.18,0,0,1,3.8,11.12l2.42,33.4-4.76,3.07-1.56-21.8A22.25,22.25,0,0,1,290.51,119.35ZM262,109.17A18.87,18.87,0,0,0,288,115a18.84,18.84,0,0,0,8-11q2-7.19-2.6-14.4a18.16,18.16,0,0,0-11.6-8,17.44,17.44,0,0,0-14,2.39,17.82,17.82,0,0,0-8.2,11.8A17.55,17.55,0,0,0,262,109.17Z"/><path class="cls-9" d="M239.65,79.9,189.31,27.66l1.74-5.28,46.49,48.17L244,51a3.46,3.46,0,0,0-.24-2.77,3.63,3.63,0,0,0-2.17-1.87l-3.46-1.14,1.54-4.68,11.7,3.85Z"/><path class="cls-10" d="M137.51,30.58a22.81,22.81,0,0,1,11.32,7.47,26.43,26.43,0,0,1,14.09-10.31l2.35-.74L174,54.89l-2.35.73a26.78,26.78,0,0,1-17.43-.4A23.49,23.49,0,0,1,149,67.81a22.71,22.71,0,0,1-11.21,7.6,23,23,0,0,1-17.89-1.6A22.67,22.67,0,0,1,108.35,60,22.48,22.48,0,0,1,110,42.09a23,23,0,0,1,13.83-11.47A22.78,22.78,0,0,1,137.51,30.58Zm13.23,12.53L149,46.93l3.77,1.85a21.55,21.55,0,0,0,14.9,1.55l-6.4-17.88A21.47,21.47,0,0,0,150.74,43.11Zm-36.57,2.38A18.45,18.45,0,0,0,123,70.16a17.85,17.85,0,0,0,14.16.7,18.32,18.32,0,0,0,10.42-9.6,17.58,17.58,0,0,0-8.82-24.51A18.46,18.46,0,0,0,124.63,36,17.88,17.88,0,0,0,114.17,45.49Z"/><path class="cls-11" d="M90.59,111,60.5,125.73l-4.62-3.27,19.64-9.57a23.53,23.53,0,0,1-8.83-3.8,22.5,22.5,0,0,1-9.34-15.23,23,23,0,0,1,19.13-27,22.76,22.76,0,0,1,17.26,3.9q8.64,6.12,9.88,15.72a23.15,23.15,0,0,1-13,24.55Zm-20.77-5.88a19.18,19.18,0,0,0,13.88,2.9,17.33,17.33,0,0,0,11.74-7.34,18.33,18.33,0,0,0,3.14-13.66,17,17,0,0,0-7.19-12,18.33,18.33,0,0,0-14.1-3.39,17.28,17.28,0,0,0-11.76,7.21q-5,7.08-3.42,14.53A18.79,18.79,0,0,0,69.82,105.16Z"/></g></g></svg>