<svg xmlns="http://www.w3.org/2000/svg" xmlns:xlink="http://www.w3.org/1999/xlink" viewBox="0 0 348.69 348"><defs><style>.cls-1{fill:#333;stroke:#000;stroke-miterlimit:10;}.cls-2{fill:url(#Pewter);}.cls-3{fill:url(#Pewter-2);}.cls-4{fill:url(#Pewter-3);}.cls-5{fill:url(#Pewter-4);}.cls-6{fill:url(#Pewter-5);}.cls-7{fill:url(#Pewter-6);}.cls-8{fill:url(#Pewter-7);}.cls-9{fill:url(#Pewter-8);}.cls-10{fill:url(#Pewter-9);}.cls-11{fill:url(#Pewter-10);}</style><linearGradient id="Pewter" x1="688.89" y1="-947.94" x2="753.22" y2="-947.94" gradientTransform="translate(1017.39 -778.59) rotate(180)" gradientUnits="userSpaceOnUse"><stop offset="0.03" stop-color="#a8a7a3"/><stop offset="0.13" stop-color="#b1b1b2"/><stop offset="0.22" stop-color="#bbbcc2"/><stop offset="0.35" stop-color="#acafb4"/><stop offset="0.6" stop-color="#858c90"/><stop offset="0.72" stop-color="#71797d"/><stop offset="1" stop-color="#9aa0a4"/></linearGradient><linearGradient id="Pewter-2" x1="187.94" y1="-187.49" x2="236.26" y2="-187.49" gradientTransform="matrix(1, -0.04, 0.04, 1, 72.27, 438.07)" xlink:href="#Pewter"/><linearGradient id="Pewter-3" x1="364.06" y1="-24.08" x2="429.23" y2="-24.08" gradientTransform="matrix(1, 0.05, -0.05, 1, -180.15, 291.46)" xlink:href="#Pewter"/><linearGradient id="Pewter-4" x1="465.64" y1="173.22" x2="531.25" y2="173.22" gradientTransform="translate(-340.48 77.09) rotate(5)" xlink:href="#Pewter"/><linearGradient id="Pewter-5" x1="453.38" y1="388.92" x2="505.43" y2="388.92" gradientTransform="matrix(0.99, 0.11, -0.11, 0.99, -363.22, -185.44)" xlink:href="#Pewter"/><linearGradient id="Pewter-6" x1="335.63" y1="543.72" x2="375.77" y2="543.72" gradientTransform="matrix(0.99, 0.13, -0.13, 0.99, -234.41, -407.23)" xlink:href="#Pewter"/><linearGradient id="Pewter-7" x1="170.73" y1="598.57" x2="217.7" y2="598.57" gradientTransform="matrix(0.98, 0.18, -0.18, 0.98, -12.47, -518.83)" xlink:href="#Pewter"/><linearGradient id="Pewter-8" x1="-52" y1="506.94" x2="22.95" y2="506.94" gradientTransform="translate(205.56 -441.87) rotate(6.86)" xlink:href="#Pewter"/><linearGradient id="Pewter-9" x1="-162.78" y1="304.99" x2="-96.19" y2="304.99" gradientTransform="translate(362.72 -242.09) rotate(4.65)" xlink:href="#Pewter"/><linearGradient id="Pewter-10" x1="-149.74" y1="68.05" x2="-97.14" y2="68.05" gradientTransform="translate(397.09 30.86) rotate(2.18)" xlink:href="#Pewter"/></defs><g id="Layer_2" data-name="Layer 2"><g id="Layer_3" data-name="Layer 3"><path class="cls-1" d="M272.38,315.67l-8.45,7.09C251,332.6,236,337.63,221.06,343c-8.25,3-14.72,4-15.16-7.35-.15-4-2.33-5-6.27-4.24-17,3.21-34,4.2-51,1.52-4.14-.65-5.37,1.52-6.43,4.93-3.34,10.71-3.6,10.68-14.74,8.34-17.09-3.59-32.1-11.82-47.45-19.33-5-2.46-5.86-6.22-2.53-10.67,4.11-5.48,2.74-9.06-2.47-12.64C64,296,55.29,286.15,47,275.82c-6.21-7.73-6.36-7.62-15.61-2.69a7.36,7.36,0,0,1-3.73.91l-5.89-7c-10.6-14-15.28-30.69-20.09-47.29-2.26-7.8-1.77-8.91,6.19-10.69,5.47-1.22,7.25-3.6,6.46-9.16-2.32-16.32-2.53-32.74,1-49.15.87-4-.45-6.05-4.37-7.41-8-2.81-8.59-4.34-6.44-12.52C9,113.53,18.05,98.2,26.88,82.8,29.61,78,33.34,76,38.39,79.53c3.7,2.6,6.72,1.42,9.29-2C55.87,66.43,66,57.3,76.86,49c5.52-4.2,8.52-8.34,4.16-14.73a6.17,6.17,0,0,1-.57-3.75l1.21-1c3-.4,4.38-3.12,6.66-4.56C102.61,12.25,120.73,8.51,138,2.92c4.23-1.37,7.16.92,8,5,1.27,5.89,4.9,7,10.31,6,13.17-2.35,26.35-2.22,39.47-.7,5.14.59,8.43-.59,9.51-6.35,1-5.31,4.7-7,9.93-6.09,19,3.38,36.08,11.45,53,20,4.55,2.29,4.35,6.07,1.62,9.7C266.23,35.3,268,38,272.34,41c10.74,7.37,20.54,15.91,28.51,26.21,4.2,5.41,8.17,9,15.16,4,1.05-.76,2.52-.45,3.81-.45l6.87,8.18c9.91,13.17,15.3,28.47,20,44.09,2.52,8.35,2.41,8.86-6,11.7-4.61,1.54-6.33,3.93-5.5,8.61,2.78,15.79,2.42,31.73,0,47.68-.88,5.94.56,9.43,7.17,9.72,4.91.22,6.51,3.09,5.55,7.9-4,19.88-13.05,37.77-23.28,55.17-2.78,4.73-6.74,3.3-10.06,1-4.84-3.31-7.85-2.39-11.4,2.62-7.9,11.17-17.83,20.53-28.55,29.1-8,6.42-7.91,6.6-3.08,15.48A6.86,6.86,0,0,1,272.38,315.67Z"/><path class="cls-2" d="M272.84,191.11a31.88,31.88,0,1,1,22.31,10.33A30.84,30.84,0,0,1,272.84,191.11Zm-3.62-22.8a27.44,27.44,0,1,0,8.74-18.8A26.17,26.17,0,0,0,269.22,168.31Z"/><path class="cls-3" d="M267,273.33l-13.3-9.72,3-4.06,1.63,1.18a3.75,3.75,0,0,0,5.24-.81l27.64-37.83a3.75,3.75,0,0,0-.81-5.24l-1.63-1.19,2.92-4,8.64,6.32-32.77,44.84a3.76,3.76,0,0,0,.81,5.25l1.63,1.18Z"/><path class="cls-4" d="M238,298.51a23.39,23.39,0,0,1-12.27.75,102.4,102.4,0,0,1-15-4.24q-12.17-4.5-19.43-4.62l3.54,10.78a3.38,3.38,0,0,0,1.9,2.13,3.7,3.7,0,0,0,2.8.18l3.39-1.11,1.54,4.7-11.74,3.85-8.12-24.79,3-.39a30.61,30.61,0,0,1,9.47.27,61.09,61.09,0,0,1,8.76,2q3.51,1.15,9.11,3.27,13.52,5.12,21.52,2.49a12,12,0,0,0,7.28-6.29,12.14,12.14,0,0,0,.73-9.53,11.66,11.66,0,0,0-2.73-4.5q-2.58-2.91-7.11-1.42l-1.54-4.7,11.83-3.87,1.54,4.69-2.26.74a16.9,16.9,0,0,1,5,7.61,16.62,16.62,0,0,1-1.09,13.26A16.87,16.87,0,0,1,238,298.51Z"/><path class="cls-5" d="M165.46,316.73l-2.62-1.43a26.06,26.06,0,0,1-12-13.62,21,21,0,0,1-11.54,8.15,26.34,26.34,0,0,1-15.6-.68,23.7,23.7,0,0,1-12.5-11.75,21.83,21.83,0,0,1-1.41-17.19,23,23,0,0,1,6.83-10.68l5.83,1.89a18.55,18.55,0,0,0-7.93,10.23,17.59,17.59,0,0,0,1,13.34,18.41,18.41,0,0,0,9.64,9.43,21.59,21.59,0,0,0,11.29.77,18.86,18.86,0,0,0,8.44-3.76,12.54,12.54,0,0,0,4-5.58l.73-2.26L154,295a21.59,21.59,0,0,0,8.65,14.25l4.15-12.79a3.53,3.53,0,0,0-.25-2.78,3.61,3.61,0,0,0-2.19-1.86l-3.48-1.13,1.52-4.7,11.75,3.81Z"/><path class="cls-6" d="M46.08,233.54l13.29-9.74,3,4.06L60.79,229a3.75,3.75,0,0,0-.81,5.24l5,6.87,18.9-13.85,9.49,51.36L88.83,282l-4.73,3.46-2.92-4,1.63-1.19a3.75,3.75,0,0,0,.81-5.24L63.87,248.07l-4.28,3.14-2.92-4L61,244.08l-5-6.86a3.57,3.57,0,0,0-2.45-1.49,3.62,3.62,0,0,0-2.79.68l-1.62,1.19Zm21.85,11.55,19,26L80.48,235.9Z"/><path class="cls-7" d="M36,186.87a24.95,24.95,0,0,1-.49-35.67A24.8,24.8,0,0,1,66.32,147l.08,6.5a19.08,19.08,0,0,0-12.65-4.67,20.66,20.66,0,0,0-14.2,5.78,18.51,18.51,0,0,0-6,14.45,19.11,19.11,0,0,0,6.12,14,19.41,19.41,0,0,0,14.2,5.74,25.59,25.59,0,0,0,12.45-3.6l-9.11,27.37-22.44.27-.16-13.28,5.41-.07,0,3.94a4.23,4.23,0,0,0,1,2.89,3.58,3.58,0,0,0,2.87,1.1l9.44-.12,4.46-13.53a27.44,27.44,0,0,1-3.93.34A24.51,24.51,0,0,1,36,186.87Z"/><path class="cls-8" d="M57.84,116.08q-7-5.58-8.25-15.63A22.45,22.45,0,0,1,54.23,83a22.89,22.89,0,0,1,15.63-8.61,22.5,22.5,0,0,1,17.49,4.93A22.78,22.78,0,0,1,96,94.8a22.29,22.29,0,0,1-5,17.4,23.24,23.24,0,0,1-9.34,7.18l-31,13-4.43-3.53,20.2-8.48A22.33,22.33,0,0,1,57.84,116.08Zm.54-30.34a18.92,18.92,0,0,0,2.81,26.58,18.91,18.91,0,0,0,13.07,4.09q7.47-.36,12.84-7.09A18.28,18.28,0,0,0,91,95.72,17.54,17.54,0,0,0,84.27,83.2a17.83,17.83,0,0,0-13.84-4A17.56,17.56,0,0,0,58.38,85.74Z"/><path class="cls-9" d="M95.45,38.31,167.07,51l1.71,5.31L102.67,44.64,109,64.34a3.5,3.5,0,0,0,1.83,2.1,3.61,3.61,0,0,0,2.86.24l3.49-1.12,1.5,4.71L106.9,74Z"/><path class="cls-10" d="M225.51,29.7a23,23,0,0,1,13.86,11.5,22.52,22.52,0,0,1,1.69,18A22.68,22.68,0,0,1,229.47,73a23.52,23.52,0,0,1-29.17-6,23.53,23.53,0,0,1-5.18-12.63,26.84,26.84,0,0,1-17.47.4L175.29,54l8.7-28,2.36.74a26.57,26.57,0,0,1,14.13,10.33,23.56,23.56,0,0,1,25-7.44ZM188,31.54l-6.41,17.91a21.5,21.5,0,0,0,14.94-1.55l3.77-1.85-1.74-3.83A21.45,21.45,0,0,0,188,31.54Zm36.74,3.53a18.48,18.48,0,0,0-14.12.77,17.62,17.62,0,0,0-8.85,24.58,18.42,18.42,0,0,0,10.45,9.63A18.59,18.59,0,0,0,236,58.82a17.84,17.84,0,0,0-.74-14.22A17.93,17.93,0,0,0,224.74,35.07Z"/><path class="cls-11" d="M291.82,86.41l4.69,33.25L292,123.05l-3-21.7a23.36,23.36,0,0,1-6.36,7.24,23.45,23.45,0,0,1-37.23-22.41,22.82,22.82,0,0,1,9.07-15.25q8.5-6.34,18.06-4.55a23.18,23.18,0,0,1,19.36,20Zm-12,18a19.18,19.18,0,0,0,7.07-12.33,17.4,17.4,0,0,0-3.36-13.48,18.43,18.43,0,0,0-12.06-7.22,17.05,17.05,0,0,0-13.7,3.13,18.44,18.44,0,0,0-7.6,12.39,17.34,17.34,0,0,0,3.23,13.45q5.2,7,12.8,7.76A18.77,18.77,0,0,0,279.78,104.39Z"/></g></g></svg>