<svg xmlns="http://www.w3.org/2000/svg" xmlns:xlink="http://www.w3.org/1999/xlink" viewBox="0 0 350.69 350"><defs><style>.cls-1{fill:#333;stroke:#000;stroke-miterlimit:10;stroke-width:3px;}.cls-2{fill:url(#Pewter);}.cls-3{fill:url(#Pewter-2);}.cls-4{fill:url(#Pewter-3);}.cls-5{fill:url(#Pewter-4);}.cls-6{fill:url(#Pewter-5);}.cls-7{fill:url(#Pewter-6);}</style><linearGradient id="Pewter" x1="-454.68" y1="-946.94" x2="-393.56" y2="-946.94" gradientTransform="translate(-131.79 -776.59) rotate(180)" gradientUnits="userSpaceOnUse"><stop offset="0.03" stop-color="#a8a7a3"/><stop offset="0.13" stop-color="#b1b1b2"/><stop offset="0.22" stop-color="#bbbcc2"/><stop offset="0.35" stop-color="#acafb4"/><stop offset="0.6" stop-color="#858c90"/><stop offset="0.72" stop-color="#71797d"/><stop offset="1" stop-color="#9aa0a4"/></linearGradient><linearGradient id="Pewter-2" x1="143.07" y1="-139.52" x2="191.38" y2="-139.52" gradientTransform="translate(25.78 335.14) rotate(22.19)" xlink:href="#Pewter"/><linearGradient id="Pewter-3" x1="269.61" y1="-59.82" x2="334.78" y2="-59.82" gradientTransform="matrix(0.63, 0.78, -0.78, 0.63, -112.14, 76.54)" xlink:href="#Pewter"/><linearGradient id="Pewter-4" x1="373.81" y1="17.51" x2="439.42" y2="17.51" gradientTransform="translate(-15.1 -219.96) rotate(76.73)" xlink:href="#Pewter"/><linearGradient id="Pewter-5" x1="468.68" y1="152.71" x2="520.72" y2="152.71" gradientTransform="translate(366.43 -379.15) rotate(102.27)" xlink:href="#Pewter"/><linearGradient id="Pewter-6" x1="495.03" y1="339.48" x2="535.17" y2="339.48" gradientTransform="matrix(-0.61, 0.79, -0.79, -0.61, 810.64, -127.94)" xlink:href="#Pewter"/></defs><g id="Layer_2" data-name="Layer 2"><g id="Layer_3" data-name="Layer 3"><path class="cls-1" d="M273.38,316.67l-8.45,7.09C252,333.6,237,338.63,222.06,344c-8.25,3-14.72,4-15.16-7.35-.15-4-2.33-5-6.27-4.24-17,3.21-34,4.2-51,1.52-4.14-.65-5.37,1.52-6.43,4.93-3.34,10.71-3.6,10.68-14.74,8.34-17.09-3.59-32.1-11.82-47.45-19.33-5-2.46-5.86-6.22-2.53-10.67,4.11-5.48,2.74-9.06-2.47-12.64C65,297,56.29,287.15,48,276.82c-6.21-7.73-6.36-7.62-15.61-2.69a7.36,7.36,0,0,1-3.73.91l-5.89-7c-10.6-14-15.28-30.69-20.09-47.29-2.26-7.8-1.77-8.91,6.19-10.69,5.47-1.22,7.25-3.6,6.46-9.16-2.32-16.32-2.53-32.74,1-49.15.87-4-.45-6.05-4.37-7.41-8-2.81-8.59-4.34-6.44-12.52,4.54-17.28,13.57-32.61,22.4-48C30.61,79,34.34,77,39.39,80.53c3.7,2.6,6.72,1.42,9.29-2C56.87,67.43,67,58.3,77.86,50c5.52-4.2,8.52-8.34,4.16-14.73a6.17,6.17,0,0,1-.57-3.75l1.21-1c3-.4,4.38-3.12,6.66-4.56C103.61,13.25,121.73,9.51,139,3.92c4.23-1.37,7.16.92,8,5,1.27,5.89,4.9,7,10.31,6,13.17-2.35,26.35-2.22,39.47-.7,5.14.59,8.43-.59,9.51-6.35,1-5.31,4.7-7,9.93-6.09,19,3.38,36.08,11.45,53,20,4.55,2.29,4.35,6.07,1.62,9.7C267.23,36.3,269,39,273.34,42c10.74,7.37,20.54,15.91,28.51,26.21,4.2,5.41,8.17,9,15.16,4,1.05-.76,2.52-.45,3.81-.45l6.87,8.18c9.91,13.17,15.3,28.47,20,44.09,2.52,8.35,2.41,8.86-6,11.7-4.61,1.54-6.33,3.93-5.5,8.61,2.78,15.79,2.42,31.73,0,47.68-.88,5.94.56,9.43,7.17,9.72,4.91.22,6.51,3.09,5.55,7.9-4,19.88-13.05,37.77-23.28,55.17-2.78,4.73-6.74,3.3-10.06,1-4.84-3.31-7.85-2.39-11.4,2.62-7.9,11.17-17.83,20.53-28.55,29.1-8,6.42-7.91,6.6-3.08,15.48A6.86,6.86,0,0,1,273.38,316.67Z"/><path class="cls-2" d="M270,191a30.28,30.28,0,1,1,21.2,9.81A29.32,29.32,0,0,1,270,191Zm-3.43-21.67a26,26,0,1,0,8.29-17.86A24.85,24.85,0,0,0,266.58,169.36Z"/><path class="cls-3" d="M211.45,293l-8.1-14.34,4.38-2.47,1,1.75a3.65,3.65,0,0,0,2.26,1.77,3.6,3.6,0,0,0,2.85-.35l40.8-23a3.75,3.75,0,0,0,1.42-5.11l-1-1.75,4.3-2.43,5.27,9.32-48.37,27.32a3.75,3.75,0,0,0-1.42,5.11l1,1.75Z"/><path class="cls-4" d="M128.77,298.06a23.36,23.36,0,0,1-8.71-8.69,101.77,101.77,0,0,1-6.75-14q-4.69-12.08-9.43-17.6l-5.72,9.8a3.35,3.35,0,0,0-.33,2.83,3.72,3.72,0,0,0,1.72,2.22l3.08,1.8-2.49,4.27-10.67-6.24,13.16-22.51,2.25,1.95a30.64,30.64,0,0,1,6.09,7.27,59.75,59.75,0,0,1,4.28,7.91q1.45,3.39,3.59,9,5.14,13.5,12.42,17.75a12,12,0,0,0,9.53,1.28,12.2,12.2,0,0,0,7.62-5.78,11.77,11.77,0,0,0,1.56-5q.45-3.87-3.65-6.27l2.49-4.27L159.55,280l-2.49,4.27-2.05-1.2a17,17,0,0,1-2.38,8.78,16.65,16.65,0,0,1-10.65,8A16.88,16.88,0,0,1,128.77,298.06Z"/><path class="cls-5" d="M46.49,210.48l.54-2.93a26,26,0,0,1,9.15-15.7,21,21,0,0,1-11.35-8.4,26.39,26.39,0,0,1-4.25-15,23.77,23.77,0,0,1,7.24-15.56,21.84,21.84,0,0,1,15.88-6.72A23,23,0,0,1,76,149.27l0,6.13a18.61,18.61,0,0,0-12.19-4.32,17.58,17.58,0,0,0-12.37,5.1,18.44,18.44,0,0,0-5.93,12.12,21.62,21.62,0,0,0,2.81,11,18.82,18.82,0,0,0,6.22,6.83,12.58,12.58,0,0,0,6.55,2.07l2.38,0,0,4.67A21.59,21.59,0,0,0,52.69,205.5l13.45-.08a3.48,3.48,0,0,0,2.56-1.11,3.65,3.65,0,0,0,1.08-2.66l0-3.66,4.94,0,.07,12.36Z"/><path class="cls-6" d="M135.3,50.22l8.32,14.21L139.27,67l-1-1.65A3.58,3.58,0,0,0,136,63.58a3.65,3.65,0,0,0-2.85.39l-7.34,4.3,11.83,20.22-52,4.18-2.87-4.89-3-5.06,4.27-2.49,1,1.73a3.76,3.76,0,0,0,5.14,1.35L119,66.43l-2.68-4.58,4.26-2.5,2.68,4.58,7.35-4.3A3.76,3.76,0,0,0,132,54.5l-1-1.74ZM121.56,70.77,93.77,87.05l35.65-2.85Z"/><path class="cls-7" d="M225.81,60A24.22,24.22,0,0,1,245,62.13a24.49,24.49,0,0,1,11.92,15.26,24.81,24.81,0,0,1-11.82,28.8L239.46,103a19.09,19.09,0,0,0,10.37-8.62,20.65,20.65,0,0,0,2.09-15.19,18.54,18.54,0,0,0-9.5-12.44,19.12,19.12,0,0,0-15.18-1.69,19.32,19.32,0,0,0-12.06,9.42,25.59,25.59,0,0,0-3.12,12.59L192.92,65.5l11-19.57,11.58,6.5-2.65,4.72-3.43-1.92a4.21,4.21,0,0,0-3-.56A3.56,3.56,0,0,0,204,56.6l-4.62,8.24,9.49,10.63a27.11,27.11,0,0,1,1.67-3.58A24.47,24.47,0,0,1,225.81,60Z"/></g></g></svg>