<svg xmlns="http://www.w3.org/2000/svg" xmlns:xlink="http://www.w3.org/1999/xlink" viewBox="0 0 651.89 654"><defs><style>.cls-1{fill:#333;stroke:#000;stroke-miterlimit:10;}.cls-2{fill:url(#Brass_Radial);}.cls-3{fill:url(#Brass_Radial-2);}.cls-4{fill:url(#Brass_Radial-3);}.cls-5{fill:url(#Brass_Radial-4);}.cls-6{fill:url(#Brass_Radial-5);}.cls-7{fill:url(#Brass_Radial-6);}.cls-8{fill:url(#Brass_Radial-7);}.cls-9{fill:url(#Brass_Radial-8);}.cls-10{fill:url(#Brass_Radial-9);}.cls-11{fill:url(#Brass_Radial-10);}.cls-12{fill:url(#Brass_Radial-11);}</style><radialGradient id="Brass_Radial" cx="146.19" cy="1590.56" r="95.65" gradientTransform="matrix(0.77, -0.64, -0.64, -0.77, 1236.48, 1639.29)" gradientUnits="userSpaceOnUse"><stop offset="0.18" stop-color="#f8f0e4"/><stop offset="0.59" stop-color="#f2d78f"/><stop offset="1" stop-color="#c58511"/></radialGradient><radialGradient id="Brass_Radial-2" cx="-1382.03" cy="-563.78" r="33.31" gradientTransform="translate(1626.83 626.1) rotate(-16.84)" xlink:href="#Brass_Radial"/><radialGradient id="Brass_Radial-3" cx="-729.35" cy="-636.77" r="34.66" gradientTransform="translate(922.21 -162.48) rotate(-90)" xlink:href="#Brass_Radial"/><radialGradient id="Brass_Radial-4" cx="-250.15" cy="-16.55" r="38.63" gradientTransform="matrix(-0.98, -0.17, 0.17, -0.98, 207.33, 482.78)" xlink:href="#Brass_Radial"/><radialGradient id="Brass_Radial-5" cx="-629.25" cy="572.59" r="32.21" gradientTransform="matrix(-0.34, 0.94, -0.94, -0.34, 878.97, 1198.06)" xlink:href="#Brass_Radial"/><radialGradient id="Brass_Radial-6" cx="-1193.28" cy="428.31" r="37.1" gradientTransform="translate(1806.4 468.28) rotate(30)" xlink:href="#Brass_Radial"/><radialGradient id="Brass_Radial-7" cx="-1133.16" cy="-1.75" r="35.07" gradientTransform="translate(1174.04 -747.81) rotate(-50)" xlink:href="#Brass_Radial"/><radialGradient id="Brass_Radial-8" cx="-768.13" cy="96.91" r="38.92" gradientTransform="matrix(-0.67, -0.74, 0.74, -0.67, -295.94, -420.67)" xlink:href="#Brass_Radial"/><radialGradient id="Brass_Radial-9" cx="-1168.45" cy="-256.63" r="36.48" gradientTransform="matrix(-0.42, 0.91, 0.91, 0.42, -112.21, 1339.31)" xlink:href="#Brass_Radial"/><radialGradient id="Brass_Radial-10" cx="-1531.87" cy="257.02" r="34.31" gradientTransform="matrix(0.34, 0.94, -0.94, 0.34, 854.81, 1676.55)" xlink:href="#Brass_Radial"/><radialGradient id="Brass_Radial-11" cx="959.48" cy="859.9" r="286.43" gradientTransform="matrix(-0.17, -0.98, -0.98, 0.17, 1339.8, 1122.95)" xlink:href="#Brass_Radial"/></defs><g id="Layer_2" data-name="Layer 2"><g id="Layer_1-2" data-name="Layer 1"><path class="cls-1" d="M100.19,555.59l12.86,15.33c20,21.61,45.57,35.12,70.73,49.27,13.92,7.84,25.31,11.57,30.08-9,1.67-7.17,6-8.38,12.87-5.88,29.69,10.77,60.24,17.52,92,17.57,7.76,0,9.22,4.31,10,10.82,2.31,20.41,2.79,20.43,23.84,19.42,32.26-1.55,62.4-12.14,92.89-21.31,10-3,12.8-9.6,8.32-18.63-5.54-11.15-1.81-17.24,8.91-22.23,22.6-10.52,41.95-25.93,60.62-42.28,14-12.24,14.22-12,29.28-.35a13.3,13.3,0,0,0,6.46,2.74l13.14-11c24.14-22.38,38.48-51.28,53-80,6.82-13.49,6.32-15.66-7.51-21.2-9.5-3.81-11.9-8.64-8.52-18.51,9.92-28.94,16-58.69,15.43-89.49-.16-7.58,2.93-10.85,10.53-12.19,15.59-2.75,17.1-5.38,16.06-20.84-2.19-32.7-13.21-63.14-23.86-93.67-3.29-9.46-9.34-14.25-19.75-9.28-7.64,3.64-12.7.63-16.16-6.42-11-22.42-26.16-41.94-43-60.09-8.56-9.23-12.55-17.61-2.4-28,1.68-1.7,2-4.27,2.34-6.64l-1.83-2.19c-5.26-1.6-6.87-6.94-10.5-10.21-21.49-27.27-53.08-39.31-82.54-54.5-7.2-3.71-13.33-.4-16.33,6.7-4.36,10.31-11.32,11.2-20.82,7.87-23.08-8.09-47.06-11.67-71.4-12.74-9.54-.42-15.09-3.52-15.05-14.27,0-9.94-6.07-14.11-15.88-13.95-35.67.62-69.49,10.31-103.13,20.87-9.05,2.85-10,9.76-6.34,17.15,4.93,9.92.72,14.29-8.14,18.41-22.07,10.25-42.84,22.92-60.92,39.28-9.51,8.61-18,13.9-28.9,2.85-1.66-1.68-4.43-1.55-6.78-1.92L84.41,110c-22.6,21-37.74,47.23-51.76,74.22-7.49,14.42-7.47,15.38,6.86,23,7.83,4.15,10.1,9,7,17.24C35.91,252.29,31,281.33,29.74,311c-.47,11-4.3,17-16.41,15.57-9-1-12.9,3.71-12.83,12.73.28,37.24,10.48,72.33,23,106.91,3.39,9.38,11.07,7.94,17.89,4.78,10-4.61,15.09-2.07,19.78,8.07,10.43,22.56,25.19,42.44,41.65,61.1,12.35,14,12,14.29.17,29A12.92,12.92,0,0,0,100.19,555.59Z"/><circle class="cls-2" cx="326.08" cy="326.88" r="95.65"/><path class="cls-3" d="M174.45,508.9l-15.53,13.5-4.12-4.74,1.89-1.65a4.68,4.68,0,0,0,.47-6.62l-38.39-44.17a4.68,4.68,0,0,0-6.61-.46l-1.9,1.65-4.05-4.66L116.3,453l45.52,52.37a4.68,4.68,0,0,0,6.61.46l1.89-1.65Z"/><path class="cls-4" d="M271.7,543.82a29.29,29.29,0,0,1,13.76,6.82A127.09,127.09,0,0,1,299,564.55q10.38,12.42,18.17,17.07l2.88-13.87a4.24,4.24,0,0,0-.74-3.48,4.65,4.65,0,0,0-2.92-1.95l-4.37-.91,1.26-6,15.11,3.13-6.62,31.9L318.37,589a38,38,0,0,1-10.1-6.18,76.47,76.47,0,0,1-8.22-7.65q-3.07-3.45-7.84-9.22Q280.75,552,270.45,549.87a15,15,0,0,0-11.8,2.28,15.11,15.11,0,0,0-6.71,9.87,14.61,14.61,0,0,0,.15,6.57q1,4.75,6.82,6l-1.25,6.05-15.22-3.16,1.25-6,2.91.6a21.13,21.13,0,0,1-.68-11.35A20.76,20.76,0,0,1,255.35,547,21,21,0,0,1,271.7,543.82Z"/><path class="cls-5" d="M408.68,543.75l3.52-1.2a32.65,32.65,0,0,1,22.7.44,26.24,26.24,0,0,1,2.26-17.49q4.15-8.32,13.81-13.78a29.66,29.66,0,0,1,21.37-1.57,27.27,27.27,0,0,1,17,13.24,28.79,28.79,0,0,1,4.05,15.3l-6.67,3.77a23.16,23.16,0,0,0-2.7-15.93,21.9,21.9,0,0,0-13.09-10.39,23,23,0,0,0-16.82.9,27,27,0,0,0-10.26,9.73,23.53,23.53,0,0,0-3.66,10.94,15.64,15.64,0,0,0,1.73,8.4l1.46,2.59-5.08,2.87a26.94,26.94,0,0,0-20.42-4.09l8.26,14.63a4.4,4.4,0,0,0,2.77,2.12,4.52,4.52,0,0,0,3.56-.44l4-2.25,3,5.37-13.43,7.59Z"/><path class="cls-6" d="M549.75,365.87l19.35,7L567,378.77l-2.26-.81a4.68,4.68,0,0,0-6,2.81l-3.61,10,27.52,9.93L536,446.34l-6.67-2.4-6.88-2.49,2.1-5.8,2.36.85a4.67,4.67,0,0,0,6-2.81l14.16-39.25-6.23-2.25,2.09-5.8,6.24,2.25,3.61-10a4.7,4.7,0,0,0-2.82-6l-2.37-.85ZM553,396.58l-13.66,37.84,31.93-31.25Z"/><path class="cls-7" d="M547,256.66a28.17,28.17,0,0,1-15.51-16.25,29.24,29.24,0,0,1,32.79-39.3l2.67,7.06a22.11,22.11,0,0,0-15.66-.06,24,24,0,0,0-13.2,12,21.51,21.51,0,0,0-.82,18.16,22.21,22.21,0,0,0,12.25,12.83,22.48,22.48,0,0,0,17.77.61,29.72,29.72,0,0,0,12.16-8.88l1,33.49L556,285.51l-5.46-14.43,5.88-2.23,1.62,4.28a5,5,0,0,0,2.26,2.75,4.14,4.14,0,0,0,3.57.05l10.26-3.88-.52-16.55a30.8,30.8,0,0,1-4.16,1.94A28.4,28.4,0,0,1,547,256.66Z"/><path class="cls-8" d="M461.57,127.41q-5.7,9.65-17.93,12.9t-22.35-2.74A28.56,28.56,0,0,1,408,119.71,28.11,28.11,0,0,1,411,97.22,28.49,28.49,0,0,1,428.69,83.9a27.86,27.86,0,0,1,22.38,3.15,29.12,29.12,0,0,1,10.49,10.33L483,133.45l-3.61,6.09-14-23.54A27.81,27.81,0,0,1,461.57,127.41ZM423.94,132a23.62,23.62,0,0,0,32.4-8,23.48,23.48,0,0,0,2.81-16.87q-1.72-9.19-11-14.67a22.77,22.77,0,0,0-17.5-2.52,21.89,21.89,0,0,0-14.33,10.51,22.28,22.28,0,0,0-2.57,17.8A21.91,21.91,0,0,0,423.94,132Z"/><path class="cls-9" d="M326.65,109.2,240.37,80.74l-1.16-6.87,79.65,26.22-4.3-25.48a4.39,4.39,0,0,0-1.88-2.93,4.59,4.59,0,0,0-3.5-.8l-4.51.76-1-6.08L318.86,63Z"/><path class="cls-10" d="M127.29,152.67a28.53,28.53,0,0,1,17,.27,33.25,33.25,0,0,1,7.92-20.39l2-2.36,28,23.59-2,2.36a33.56,33.56,0,0,1-18.67,11.31,29.45,29.45,0,0,1,3.05,16.78,28.53,28.53,0,0,1-6.71,15.58,28.85,28.85,0,0,1-20,10.37,29.25,29.25,0,0,1-31.8-26.83,29.36,29.36,0,0,1,21.24-30.68Zm23.1,4.53.52,5.23,5.25-.36a27,27,0,0,0,17.11-7.7L155.09,139A26.86,26.86,0,0,0,150.39,157.2Zm-38.1,25.58a23.17,23.17,0,0,0,40.81,13.05q5.9-7,5.25-17a22,22,0,0,0-25-21q-9.91,1.13-15.74,8A22.38,22.38,0,0,0,112.29,182.78Z"/><path class="cls-11" d="M109.83,333.75,85,367.58l-7-.94,16.2-22.06a29.53,29.53,0,0,1-12,.94A28.14,28.14,0,0,1,63,334.08q-7.56-9.87-6-21.32A28.19,28.19,0,0,1,68.44,293a28.55,28.55,0,0,1,21.4-5.74Q103,289,110,298.94t5.49,21.14A29.3,29.3,0,0,1,109.83,333.75Zm-26.45,5.59a24,24,0,0,0,17.08-4.88,21.69,21.69,0,0,0,8.73-15,23,23,0,0,0-4.48-17,21.31,21.31,0,0,0-15-9.14,23,23,0,0,0-17.6,4.46,21.67,21.67,0,0,0-8.84,14.85Q61.86,323.45,68,330.77A23.49,23.49,0,0,0,83.38,339.34Z"/><path class="cls-12" d="M276.62,45.29a286.49,286.49,0,0,0-14.25,561.33,286.49,286.49,0,0,0,128-558.5A284.58,284.58,0,0,0,276.62,45.29Zm182.2,129.18a1.77,1.77,0,0,1-2.29,0q-7-5.91-14.62-11.25a202.2,202.2,0,0,0-52.46-26.38,1.76,1.76,0,0,1-1.19-2l13.65-77.43A1.79,1.79,0,0,1,404.16,56a282.19,282.19,0,0,1,84.58,40.34,285.59,285.59,0,0,1,30.6,24.74,1.79,1.79,0,0,1-.07,2.68Zm-19.69-8.16A196.62,196.62,0,0,1,213.58,488.43c-63.34-44.35-95.67-121.1-80.12-203.75a.74.74,0,0,1,0-.14c20.83-81.48,82.57-137.38,158.71-150.8A195.31,195.31,0,0,1,439.13,166.31Zm168,126.31a1.78,1.78,0,0,1-1.78,2H526.43a1.79,1.79,0,0,1-1.76-1.49v0a200.91,200.91,0,0,0-28.47-73.38,1.77,1.77,0,0,1,.35-2.32L556.68,167a1.78,1.78,0,0,1,2.62.35c1.61,2.32,3.2,4.66,4.74,7a281.18,281.18,0,0,1,41,104.59Q606.27,285.78,607.13,292.62ZM563.47,482.53a1.79,1.79,0,0,1-2.65.39l-60.4-50.69A1.78,1.78,0,0,1,500,430a199.26,199.26,0,0,0,26.19-76.62,1.79,1.79,0,0,1,1.77-1.56h78.48a1.8,1.8,0,0,1,1.79,2,282.18,282.18,0,0,1-44.79,128.8ZM405.41,599.76a1.8,1.8,0,0,1-2.26-1.42l-13.67-77.51a1.79,1.79,0,0,1,1.2-2,198.93,198.93,0,0,0,71.49-42.06,1.78,1.78,0,0,1,2.35-.06l60.17,50.49a1.79,1.79,0,0,1,.1,2.65,281.87,281.87,0,0,1-119.38,69.91ZM250.63,516.19a1.77,1.77,0,0,1,2.2-.76,199.09,199.09,0,0,0,78.56,13.86,1.77,1.77,0,0,1,1.81,1.46l13.67,77.52a1.8,1.8,0,0,1-1.64,2.1,282.1,282.1,0,0,1-133.12-23.52,1.79,1.79,0,0,1-.82-2.53ZM145.29,419.4a1.77,1.77,0,0,1,2.19.86,199.73,199.73,0,0,0,53.28,65,1.78,1.78,0,0,1,.44,2.28l-39.35,68.16a1.8,1.8,0,0,1-2.61.56A281.87,281.87,0,0,1,70.52,448.68a1.79,1.79,0,0,1,1-2.44ZM52.81,256.24A1.79,1.79,0,0,1,55.15,255l73.75,26.85a1.76,1.76,0,0,1,1.13,2.06A201,201,0,0,0,128.28,363c.08.41.87,4.89,1.32,7.36a1.78,1.78,0,0,1-1.26,2l-75.05,22A1.79,1.79,0,0,1,51,393c-1.11-5-2.34-11.18-3.16-15.85a281.1,281.1,0,0,1,2.79-112.32C51.33,262,52.05,259.1,52.81,256.24ZM159.89,99.35a1.8,1.8,0,0,1,2.61.55L201.82,168a1.78,1.78,0,0,1-.44,2.28,202.54,202.54,0,0,0-39.76,42.33c-3.47,5-9.71,13.91-13.16,19.68a1.78,1.78,0,0,1-2.26.72L75.44,201.72a1.79,1.79,0,0,1-.88-2.45,285.18,285.18,0,0,1,20.18-33.46A282,282,0,0,1,159.89,99.35Zm51.88-28a1.79,1.79,0,0,1,.92-2.35A284.86,284.86,0,0,1,343.93,45.66a1.79,1.79,0,0,1,1.65,2.09L331.9,125.33a1.78,1.78,0,0,1-1.78,1.47,203,203,0,0,0-38.59,3.07c-13.06,2.31-34.45,7.38-47.26,12.17a1.77,1.77,0,0,1-2.25-1Z"/></g></g></svg>