<svg id="Layer_5" data-name="Layer 5" xmlns="http://www.w3.org/2000/svg" xmlns:xlink="http://www.w3.org/1999/xlink" viewBox="0 0 1920 1080"><defs><style>.cls-1{fill:none;}.cls-2{clip-path:url(#clip-path);}.cls-3,.cls-6{stroke-miterlimit:10;stroke-width:5px;}.cls-3{stroke:url(#radial-gradient);}.cls-4{opacity:0.5;}.cls-5{fill:url(#linear-gradient);}.cls-6{stroke:url(#radial-gradient-2);}</style><clipPath id="clip-path"><rect class="cls-1" x="-0.5" y="-7.5" width="1920" height="1087"/></clipPath><radialGradient id="radial-gradient" cx="1038" cy="590" r="948.94" gradientUnits="userSpaceOnUse"><stop offset="0.06" stop-color="#f0c8c8"/><stop offset="0.23" stop-color="#c58511"/><stop offset="0.49" stop-color="#e6c16c"/><stop offset="0.59" stop-color="#f2d78f"/><stop offset="1" stop-color="#c58511"/></radialGradient><linearGradient id="linear-gradient" x1="951.92" y1="1079.5" x2="951.92" y2="-7.92" gradientUnits="userSpaceOnUse"><stop offset="0" stop-color="#f8f0e4"/><stop offset="0.21" stop-color="#f2b464"/><stop offset="0.65" stop-color="#fefcf8"/><stop offset="1" stop-color="#fff"/></linearGradient><radialGradient id="radial-gradient-2" cx="951.92" cy="866.11" r="780.73" gradientTransform="translate(0 -30) scale(1 0.96)" xlink:href="#radial-gradient"/></defs><g class="cls-2"><rect class="cls-3" x="-106" y="-105" width="2288" height="1390"/><g class="cls-4"><g id="layer1"><path id="path847" class="cls-5" d="M-134-7.92a.22.22,0,0,0-.22.22v1.55L395.37,523.62l542.35,542.51c-.34.38-.66.78-1,1.2l-12.48-9.41C799.45,963.82,700.42,887,569.94,783.11c-42.49-33.83-149.45-120.44-179.75-145.54-7-5.78-26.16-21.61-42.64-35.19-95-78.27-234-195.68-326.09-275.42L-5,304c-20-17.29-67.78-59-129.2-112.84V390.82l17.14,12.45c20.44,14.85,46.5,33.74,57.91,42,46.13,33.35,131.77,93.21,193,134.9,23,15.68,128.46,86.08,145.78,97.35l36.29,23.6C443.32,784,608,884.7,750.28,966.84c22.37,12.91,120.86,68.65,132.57,75,21.46,11.69,42,23.1,51.91,28.81q-.35.75-.63,1.53c-4-1.59-21.93-8.44-41.55-15.87-98.9-37.47-196.66-76.43-301.43-120.13-113-47.12-269.84-117.58-376-168.91-13.24-6.4-24.26-11.64-24.5-11.64-.66,0-135.36-67.4-148.46-74.28-6.34-3.33-19.3-10.09-28.81-15-25.51-13.23-59.17-31-74.9-39.49-28.23-15.29-55.65-30.29-72.74-39.77V785.17c40.15,13.71,147.75,49.31,177.6,58.67C295.76,923,582.48,998.25,896.27,1067.65c15.71,3.47,28.9,6.45,36.93,8.31q-.11.74-.15,1.47c-35.69-2.38-181.12-13.29-264.59-19.92-249.25-19.8-486.41-41.67-668.9-61.69-57.36-6.3-108.33-12.05-133.81-15.07v98.53a.22.22,0,0,0,.22.22H2037.88a.22.22,0,0,0,.22-.22V980.71c-38.85,4.62-132.94,15.11-193.16,21.47-166.81,17.62-379.75,37-595.15,54.16-93.32,7.44-242.71,18.7-279,21.1q0-.75-.15-1.5c6.93-1.61,17.51-4,30-6.75,316.07-69.74,604.42-145.31,859.84-225.35,29.64-9.29,137.21-44.88,177.6-58.67V587.09c-19.43,10.75-51.48,28.27-73.89,40.33-29.74,16-44.78,23.93-83.55,44.09-33.43,17.4-168.88,84.89-203.37,101.34-194.52,92.78-384.07,174.3-604.38,259.92-28,10.9-42.28,16.34-96.75,36.94-2.51,1-4.46,1.65-6.48,2.38-.18-.47-.37-.93-.58-1.38,5.64-3.21,14.32-8.08,24.59-13.76,17.18-9.49,35.42-19.62,40.54-22.51s14.75-8.29,21.4-12c333-186.44,666.25-400.52,977.42-628l5-3.69V191.2c-104,91.13-153.36,134-224.27,194.65-186.9,159.92-378.32,317.43-556,457.51-97.4,76.8-182,142-268.49,207.17l-22.29,16.78c-.31-.42-.63-.82-1-1.21l542.37-542.5L2038.1-6.16V-7.7a.22.22,0,0,0-.22-.22H1839.71c-5.29,6-11.81,13.46-18.39,20.92-25.58,29-37.62,42.83-90.51,103.81-184.6,212.79-377.09,444.75-531.1,640l-30,38c-56.49,71.59-134,172.24-185.84,241.4-8.54,11.39-16,21.2-20.59,27.27-.48-.36-1-.69-1.46-1l3.06-5.53c3.52-6.34,14.29-25.78,24-43.21,27.48-49.6,65.33-116.42,88.43-156.13,81.22-139.59,150.21-252.49,236.06-386.27,48.56-75.66,110.14-168.24,163.85-246.34,50-72.65,120.28-171.58,165.51-232.94h-199c-107.33,194.3-203,389.08-299.05,608.59-63.27,144.66-120.22,285.42-186.2,460.18-.54-.2-1.09-.37-1.64-.52,4.37-21,19.82-90,33.19-148C1070.81,562,1154.61,261.72,1243.34,4.5c1.65-4.81,2.86-8.34,4.25-12.42H1049.72c-4.45,37-15.32,134.6-22.26,200.68-24.46,232.8-49.65,523.55-71.7,827.63-1.26,17.37-2.48,32.16-3.21,39.33l-.63,0-.59,0c-.82-8.19-2.29-26.3-3.83-47.4-25.57-350.25-53.79-667-82.06-921-5-45.23-9.05-80.34-11.32-99.28H656.27c1.23,3.59,2.24,6.55,3.67,10.69,92.19,266.51,184.59,600.9,266.62,964.9,10.69,47.4,17.77,79.39,20.55,92.66-.5.13-1,.28-1.48.45-1.56-3.92-3.63-9.25-5.93-15.33-8.11-21.49-20.31-53.34-36.18-94.49-70-181.51-166-405.87-241.4-564-6.19-13-13.46-28.29-16.15-34-13.28-28.15-24.14-50.28-54.6-111.2-18.22-36.44-36-71.7-39.51-78.35S541.44,143.5,536.51,134C513,88.67,477.75,23.48,460-7.92H261.13l11,15.16,30.2,41.48C352.14,117.12,432.19,232.18,490,318.36c58.91,87.86,129.64,197.25,176.19,272.51,4.9,7.93,12.93,20.89,17.84,28.81C745.55,719,822.5,849,874.65,941.74c4.63,8.24,10.77,19.13,13.63,24.2l10.1,17.86c5.38,9.52,34.46,62,43.62,78.72a17,17,0,0,0-1.42,1c-3.83-5-9.7-12.74-19.29-25.53C863.34,960.7,793.06,869.69,704.61,757.38,576.1,594.2,411.43,394.57,247.92,203.73c-66-77-69.93-81.58-141.74-163.56C88,19.44,73.86,3.24,64.14-7.92Z"/></g></g><path class="cls-6" d="M1983.27,885.84c-1.27,1.49-3.48,2.37-5.25,3.53-3.29,2-4.13,5.12-6.84,7.41-1.5,1.13-1.32,2.73-1.6,4.15-1.22.18-2.45.34-3.63.53l-1.45-65.32a40.53,40.53,0,0,0-7.3-.48,8.31,8.31,0,0,1-1.39-6.67c.8-4.45-.87-8.9.22-13.34-1.26,0-2.5,0-3.71,0a26.14,26.14,0,0,0,3.43-2.72,23.32,23.32,0,0,1,.64-7.79c.92-3-1.15-5.89-.42-8.86,1-4-.54-8,.29-12,1.44-3.51,2.39-7.38,1.33-10.94-.47,1.3-.24,2.79-1.5,3.91-2.79-3.48-1.63-8.43,2.94-11,.08-6.35.5-12.76-.91-19.07-1.29-5.67,1-11.49-1-17.09.56-3.38.44-6.79.79-10.18l-1.78-.06c1.72-4.77,0-13.46,1.28-15.48.24-.93,1.18-1.83.88-2.8-1.82-4.3.85-9-2.39-13.08a25.74,25.74,0,0,1,2.51-8.65c-3-1-6.4-.7-9.63-.85-4.46-.6-7.7-3.82-12.6-3-10.68,1.47-21.62,1.35-32.45,1.9-1.27,1-2.58,2-3.94,2.9-.19-.38-.57-1.15-.75-1.53a33.17,33.17,0,0,1-8.26-1.65c-5.24-.18-10.75.39-15.36-1.75-3.16,1-6.49,2-10,1.19.32.67.66,1.33,1,2-2.76-.64-5.5-1.62-8.47-1.53-4.91,1-4.48,2.87-12.56.34-.77.5-1.55,1-2.28,1.47-.22,3.85-1.37,42.08-1.37,42.08,2.78,5.23,1.59,10.86,1.66,16.31-4-.12-8,.15-12-.29-3.5,4.24-12.85-.6-16.37,3.62-.71,3.73,0,20.54-.57,22.39-1.21,3.75-.82,7.62-.24,11.41-2.64,1.44-6.15,2.93-5.87,5.6-.75,21.93,2.92,159.74,3.9,192.68-8.05.28-16.17,10.91-24.16,12l-.93-24c-3.45-.77-7.1-1-10.47-1.93-1.35-1.15-.89-2.73-1.06-4.09a79.87,79.87,0,0,0-8.16-.66c-.29-13.63.39-27.28-.74-40.88-1-1.16-2.92-2-2.64-3.54-.13-3,.17-6-.14-8.92q-2.47-1.65-4.77-3.38c.72-3.38-2.13-6.44-1.77-9.78.11-10.41-.86-20.81-1.16-31.21-3.63-4.72-1.54-10.15-2.14-15.25-3.22,0-6.42-.08-9.6-.16-.62-2.36-.7-5.34-4.15-6.63.37-3.38-6.5-14.7-7.68-16.32-.69,1.41-1.35,2.82-2.07,4.22-2.24-2.21-3.15-4.87-4.79-7.27-6,8.52-3.54,13.66-11.52,18.75,0,1.47.09,2.94.13,4.42a44.7,44.7,0,0,1-6.6-1.52,29.73,29.73,0,0,1-8.69,1.61c-.32,6.65.18,13.31-.2,20-90.59-1.58-88.32-1.34-101.2-2.18-2.9,3-8.26,5.06-8.64,8.93.93,19.56-.71,68.94.86,96.55.27,32.6,1.37,30.22-4.57,31.66a12.25,12.25,0,0,1-5-3c-2.67-12.46-.67-25.13-1.93-37.67l-6.42-.2-.4-1.41-4.41-.18a8.85,8.85,0,0,0-.66-7.27c-6.14-.22-12.3.72-18.37-.3-3.9-47.21-6.16-237.76-6.16-237.76-.51,1.43.18,3.29-1.6,4.35,0,0,0-56.62-.12-60.7a44.21,44.21,0,0,1-1-12.12c-3.5-1.34-7.7-.7-11.45-1.48s-.45-4.44-1.62-4.7c-.49-1-.94-1.92-1.42-2.86-1.16.13-2.83-4.82-2.11-7.57-5.7-1.87-12.07-2.06-18.16-2.82-3.19-8-7.72-15.71-10.59-23.78-1.17-3.48-.57-7.18-2.46-10.56-.69-1-2.62-.95-3.82-1.45a47.78,47.78,0,0,1,0-10.89c1-1,2.21-2,3.32-2.95-1.21,0-2.38,0-3.55,0,.08-13.9-.57-10.84,2-14.09a17.29,17.29,0,0,1-2.44-2c-1.91-11.21.9-11.1,2.82-13.31-1.4-.53-3.5-.91-3.36-2.29,0-4.23-1.62-9,2.3-12.68l-2.47.26a82.62,82.62,0,0,1,.73-15.55,28.86,28.86,0,0,0-5,.59,21.86,21.86,0,0,1-.3,15.76c2,3.73,1.22,7.76,1.23,11.66.07,1.16-1,2.1-1.8,3,.81.94,1.87,1.88,1.8,3a63,63,0,0,1-.23,10.28c-1,.43-2,.88-3,1.33,1,.56,2,1.12,3,1.68.43,4.1.11,8.21.26,12.32l-3.79-.27c1.12,1.08,2.42,2,3.6,3.11.27,2.94-.08,5.9.09,8.86.7,2.72-5.29,3.23-4.53,6,.58,6.42-8.58,30.89-9.08,31.87-6.92.36-14.52.56-20.34,3.46-2.08.82-.42,2.35.11,3.46-.92,1.76-1.83,3.52-2.84,5.25-1.5.41-3,.84-4.44,1.25,0,.67,0,1.34.07,2-3.51.71-7.18.91-10.65,1.67-.1,22.83-.08,45.67-.07,68.51.62,11.36-3.68,47.4.69,62.57,3.7,37.7,1.75,97.12,3.27,116.51-8.47,2-17.18-.36-25.77.29-2.32,0-4.3-1.08-6.41-1.62-4.76,3.26-11.64,1.58-36.73,2.13-.7,39.78,1.54,39.39,1,83.73-3.57.12-7.14.13-10.69,0a21.41,21.41,0,0,0-1.22-4.88,164.58,164.58,0,0,1-18.58.13c-.76-5.26,0-10.54-.39-15.81-.57-5.83-2.09-11.63-2-17.5a42.3,42.3,0,0,0-1.87-13.21c-3.09-1-6.91-.33-10.28-.58-.21-8.87.16-17.76-.32-26.63-.26-2.31-1.76-4.48-1.77-6.8.58-113.08-4.26-79.46,7.68-98.08-2.69-.3-5.34-.66-7.94-1.16,3.15-6-.11-12.37,1.87-18.49,1-2.94,3.18-5.73,2.6-8.83-.69-4.56.39-9.11,0-13.68-3.88-.12-7.77-.11-11.63-.08l-.23-.1c-.2-1.27,0-2.64-1-3.77a22.77,22.77,0,0,0-.51,3.26,65,65,0,0,0-9.85-1.53l.87-.1c-4.4-2.52,0-6,.13-9.07L1297,730c-.24-3.6.12-7.2-.2-10.8a20,20,0,0,0-4.85,10,128.83,128.83,0,0,0-14.85.59c0-2,0-4.07-.19-6.1-7.57-3.07-2.06,4.63-4-32.41a83,83,0,0,0-8.8.33c1.28-1.41.76-3-.26-4.35l-4.15-.08c-1.73-10.16,2.79-7.32-.76-17.91.2-16.9.93-19.68-.93-23.37-1.85-4.12.24-8.41-.51-12.6-.26-3.83-1.31-8,2-11.38.07-1.66-2.73-1.31-4.31-1.66.71,9.82-1.89,20.92-1.89,43.63,0,2.66.76,5.43-.79,8-1.06.2-2.12.4-3.15.61a41.37,41.37,0,0,1-1.73,4.77l4,1.44c3.31,15.37,1.77,14.3-4.36,15.54a33.56,33.56,0,0,1-5.24-1.39c0,.12-.1.25-.14.38-2.33-.73-4.32-.44-7.24-1.07a31.37,31.37,0,0,1-3.87-1.37,7.88,7.88,0,0,0-3.95-.45l-.42-.62-2.77.15c-8.24,10-12.3,21.18-17.46,32-3.09-2.82.29-7.54-4.85-9.41-2.19,3.23-1,6.83-1.62,10.25-.39,3.14-1.77,6.2-1.84,9.37,1.3.42,2.63.87,4,1.31-2.21,4.4-.11,9-.69,13.52-.68,3.59,2.11,6.93,1.48,10.51,0,0,.18,49.83.1,52.21-1.1,8.34,3.24,17.54-3.35,25.18-3,2.57-1.66,6-2.7,9-2-.7-3.21-2.08-4.47-3.3-.27.83-.51,1.66-.74,2.5l-3.18,1c0,2,1.62,3.4,3.84,4.56.09,2.66.89,56.19-.26,60.45A26,26,0,0,1,1183,908c-4.93-5.3-4.34-5.21-2.35-9.34l-2.44-.52c-.22-1.58-.29-3.16-.65-4.72-2.66-1.73-7.07-3.51-10.49-1.68-4.51,1.06-3.56,4.77-5.71,7.12.07,1.75,1,3.48.55,5.28l-6.12.93c-1-4.65-1.38-9.37-2.64-14-1.48-2-4.08-3.81-3.64-6.26-.66-4.05,1.93-8,.84-12l-2.21,1.59c0-12.72-.06-25.44-.11-38.15q-2.61-1.47-5.33-2.81c-2.37-12.95,2.19-6.28-1.3-27-.74-1.2-2.21-2.08-3.06-3.24,1.21-.59,3.57-.8,3.38-2.18s-2.81-1.5-4.17-2.14l-.28-1.25,4.25-.6c-1.86-30.11-.12-46.8-1-61.58-6.31-.29-12.63-.09-18.94-.23-3.36,0-6.41-1.31-9.77-1.29-5-.11-10.08.25-15-.34-9-1.08-18.3.25-27.34-.9-10.39-.85-20.93.37-31.28-.88-.27.22-.83.64-1.12.86l1.8,71.63a189.73,189.73,0,0,0-19.81-.08c.15,20.26.22,40.54,0,60.79-5.12-.17-10.25-.32-15.37-.18-6.06.14-12-1.48-18-.86-9.16.83-18.45-.36-27.59.72a74,74,0,0,1-12.54.17c-.63-13.77.37-27.58-.58-41.34-3.89-1.35-6.34-3.89-9.67-5.73-3.15-2.19-6.73-4-10.16-6-23.1-.83-17.71,1.19-53.59.59-.28-31.17.28-69.81-.46-78.47-.28,1.29-.58,2.57-.92,3.86-1.95-1.67-2.14-4.48-5.55-5.1-1.85-.46-13.24-4.61-17.85-6.69q-.79,1.11-1.56,2.22c-1.08-1.28-1.15-3.29-3.57-3.72a45.62,45.62,0,0,1-9.13-3.25c-5-2.59-11.06-4-16.34-6.25-1.83-.53-1.17-2-1.42-3.09.11-1.76-1.91-3-3.58-4l-.28,2.24c-2.12-.75-4.65-.8-6.58-1.82-.46,1.43-1,2.86-1.45,4.29-15.55,2.46-33.67-1.62-42.58,3.54-4-1.66-5.09-2.45-30.56-1.06-1.51,6.4-1.43,160.5-1.37,162.21.32,2.18-2.24,3.88-2.35,6-.15,2.87.12,5.75-.14,8.62-5.05-.49-4.05-4.42-4.47-7-4.86-1.78-1.38-.51-17.87-1.23-.82,2.59-.16,5.74-3.29,7.69-2.06.66-4.47.77-6.32,1.7a18.3,18.3,0,0,0-1.71,2.71l-3.55.1c-.66,1-1.31,2-1.92,3.06-11.13.54-22.46,0-33.36,2-.42,6.27.18,12.55-.25,18.83-18.42.53-28.91-.48-37.54,1-.13,4,.35,24.52-1,26.08-4-1,.07-3.91-4.38-9.41-2.36,1.5-5.09,2.85-8.34,1.74a9,9,0,0,1,1.12-5.38c-7.32-8.52-11.64-18-17.9-26.91-3.64-5,.49-40.37-2.05-42-6.95-2.35-14.79-2.83-22.07-4.5-.83-58,1.07-53.72-2.66-57.87-.53-5.64.36-11.52-2.8-16.87-.22-1.23-1.43-46.92-1.48-47.82-.09-2.29-5.79-23.5-5.93-24.08-2.14-2.77-7.63-.4-10.46-2.69-.73-5.54,1.27-11.43-2.33-16.64-1.87-2.79-1.7-5.93-2.58-8.88-1.07-2.56-6.14-3.27-6.65-6-1.1-4.87-4.66-9.18-6.48-13.9-1.34-2.2.25-4.53-.09-6.79a20,20,0,0,0-2.22-4.92c-4.94,3.78-1.33,9-3.6,13.35-1,2.9-4.21,5.18-4.74,8.18a73,73,0,0,1-2.52,7.33l-2.95-1-2.14.58c-.21,2.47-.09,5-1.75,7.28-3.81,5.7-2.44,12.1-3.54,18.13-2.16,2.52-6.74,1.21-10.1,1.27-1.44,2.93-2.11,16.92-5.11,21.72-3.31,7.85-1,21-1.9,42.47-3.61-1.24,1.36,2.33-39.71-30.71,1-1.35,4.29-2.49,3.09-4.17-20.39-7.4-19.64-2.51-28.53-4.82a24.88,24.88,0,0,0-9.55-.83c-11.28,1.42-22.8.21-34.15.78a53.9,53.9,0,0,1-11.42,1.55,22.61,22.61,0,0,0,4.15,4c-9.62,6.67-20.11,12.7-29.7,19.39-8.18-1-16.6-.18-24.7-1.54q-.18-3-.31-6-3.6-.06-7.19.09L297.05,754c-1.79-1-2-2.56-2.56-4-2.27-.11-4.54-.12-6.81-.06-1,1.32-2,2.63-3,4-1.95-.33-2.27-1.71-2.79-2.83a41.27,41.27,0,0,0-6.95-.44c-.17,1.92-3.05,2.37-5.14,3-.3-1-.58-1.94-.85-2.91-2.43-.13-4.93-.78-7.35-.43-2.08,1.44-3.88,3.05-5.89,4.54-7,1.82-5.49-2.47-20.1,4.38-.27,5,0,10-.13,15.07-.19,4,1.64,8.14,0,12.12-22,.52-15.63.85-30.17,5.09-3,.93-6.24,1.65-8.94,3-.83,1.61-.48,44.76-.47,45.34.09,3-1.1,6-1.15,9.08-.12,7.86.24,15.74-.13,23.62a105.87,105.87,0,0,1-10.69.11c-.14,1.72-.27,3.45-.41,5.17-3.88.08-7.77.09-11.65.15-.58,3.53-1.6,7-1.43,10.61-.17,3.43.64,6.93-.33,10.32a39,39,0,0,1-8.08,5.81,86.25,86.25,0,0,1-.3-11.59c0-2.4,2.39-4.61,1.36-7a41.51,41.51,0,0,1-1.41-8.79l-6.11-.37-1.06-2c-2.68.17-5.34.35-8,.55-.16-.93-.31-1.83-.45-2.74-2.21.54-4.41,1.08-6.6,1.66a22.47,22.47,0,0,1-2.18-3.31c4.19-.11,8.39,0,12.58-.09-1-1-3.08-.57-4.55-.86-1.78,0-2.74-1.19-4.07-1.79a34,34,0,0,0-4.76-.62c-.55-11.81,1.24-65.18.85-101-3.3-.3-6.72-.48-9.56-1.79-.14-1.63-.3-3.26-.46-4.88l-4.05-2c-.13-2.15,0-4.29-.34-6.43-2.33-1.64-6.06-1.48-9.1-2.05l-1.08-1.43c-5.56-.54-11.18-.41-16.76-.67-.63-.63-1.27-1.24-1.92-1.85,2-4,.94-8.17,1.43-12.26-1.37-1.17-4-.92-6-1.35-.36-6.47-2.76-4.35-12.13-4a38.48,38.48,0,0,0-.54,10.49c0,2.29,3.5,4,2.39,6.4l-2.87.21c1.18,1.2,2.45,2.33,3.73,3.48-1.77.89-3.69-.23-5.4-.62-8.12,2.74-6.79,2.78-7,8.36-5.56,2.33-3-.58-4.5,8.72-.25,1.86-1.56,3.58-1.75,5.45-2.24,32.08-2.32,91.39-2.32,91.39l-8.43.14c-.22,1-.43,2-.65,2.93a79.22,79.22,0,0,0-9.87.36c-4.84-.5-9.75-1.57-14.66-.86-1.77,1-3.15,2.33-2.38,4,3.56.37,7.11.8,10.64,1.31.11,1.77.13,3.55.08,5.33-2.81-.12-5.61-.47-8.42-.42-3.14.47-6,1.77-9.24,1.76C12,876.41,8.08,877.51,4,878c-.12-.56-.36-1.7-.47-2.27-4.18,3-.06,6.95-.54,10.48a44.56,44.56,0,0,0-6.13.42c-7.58,4.17-18.12,3.27-26.57,6.1l-.27,4c2.47.16,4.93.32,7.4.52a29.47,29.47,0,0,1-.06,3.25c-1.85.1-3.93.86-5.56-.1-3-1.61-6.91-1.05-10.4-1-.13,3.26,1.8,6.48.83,9.73-30.8-.09-23-2.61-38.86,3.07-1.26,11-.64,22.13-1,33.19l-2,1.15c-.33-2.12.47-4.47-.73-6.44-5.71-3.29-7-8.65-8.34-13.42-.25-1.43-2.19-2.21-3.42-3.22.14-2.19.24-4.38.28-6.57-1.38-.68-2.55-1.86-4.45-1.72s-3.38,1.16-5,1.82c.21,2.52.28,5,.53,7.58a5.85,5.85,0,0,0-5.47,2.57v164.86H2010V879.19C2000.92,878.21,1985.72,882.56,1983.27,885.84Z"/></g></svg>