<svg xmlns="http://www.w3.org/2000/svg" xmlns:xlink="http://www.w3.org/1999/xlink" viewBox="0 0 350.69 350"><defs><style>.cls-1{fill:#333;stroke:#000;stroke-miterlimit:10;stroke-width:3px;}.cls-2{fill:url(#Pewter);}.cls-3{fill:url(#Pewter-2);}.cls-4{fill:url(#Pewter-3);}</style><linearGradient id="Pewter" x1="694.13" y1="-945.85" x2="758.47" y2="-945.85" gradientTransform="translate(1020.63 -775.5) rotate(180)" gradientUnits="userSpaceOnUse"><stop offset="0.03" stop-color="#a8a7a3"/><stop offset="0.13" stop-color="#b1b1b2"/><stop offset="0.22" stop-color="#bbbcc2"/><stop offset="0.35" stop-color="#acafb4"/><stop offset="0.6" stop-color="#858c90"/><stop offset="0.72" stop-color="#71797d"/><stop offset="1" stop-color="#9aa0a4"/></linearGradient><linearGradient id="Pewter-2" x1="33.79" y1="-147.25" x2="82.1" y2="-147.25" gradientTransform="translate(-35.13 246.71) rotate(81.84)" xlink:href="#Pewter"/><linearGradient id="Pewter-3" x1="248.06" y1="-223.77" x2="313.23" y2="-223.77" gradientTransform="translate(358.89 -185.21) rotate(171.1)" xlink:href="#Pewter"/></defs><g id="Layer_2" data-name="Layer 2"><g id="Layer_3" data-name="Layer 3"><path class="cls-1" d="M273.38,316.67l-8.45,7.09C252,333.6,237,338.63,222.06,344c-8.25,3-14.72,4-15.16-7.35-.15-4-2.33-5-6.27-4.24-17,3.21-34,4.2-51,1.52-4.14-.65-5.37,1.52-6.43,4.93-3.34,10.71-3.6,10.68-14.74,8.34-17.09-3.59-32.1-11.82-47.45-19.33-5-2.46-5.86-6.22-2.53-10.67,4.11-5.48,2.74-9.06-2.47-12.64C65,297,56.29,287.15,48,276.82c-6.21-7.73-6.36-7.62-15.61-2.69a7.36,7.36,0,0,1-3.73.91l-5.89-7c-10.6-14-15.28-30.69-20.09-47.29-2.26-7.8-1.77-8.91,6.19-10.69,5.47-1.22,7.25-3.6,6.46-9.16-2.32-16.32-2.53-32.74,1-49.15.87-4-.45-6.05-4.37-7.41-8-2.81-8.59-4.34-6.44-12.52,4.54-17.28,13.57-32.61,22.4-48C30.61,79,34.34,77,39.39,80.53c3.7,2.6,6.72,1.42,9.29-2C56.87,67.43,67,58.3,77.86,50c5.52-4.2,8.52-8.34,4.16-14.73a6.17,6.17,0,0,1-.57-3.75l1.21-1c3-.4,4.38-3.12,6.66-4.56C103.61,13.25,121.73,9.51,139,3.92c4.23-1.37,7.16.92,8,5,1.27,5.89,4.9,7,10.31,6,13.17-2.35,26.35-2.22,39.47-.7,5.14.59,8.43-.59,9.51-6.35,1-5.31,4.7-7,9.93-6.09,19,3.38,36.08,11.45,53,20,4.55,2.29,4.35,6.07,1.62,9.7C267.23,36.3,269,39,273.34,42c10.74,7.37,20.54,15.91,28.51,26.21,4.2,5.41,8.17,9,15.16,4,1.05-.76,2.52-.45,3.81-.45l6.87,8.18c9.91,13.17,15.3,28.47,20,44.09,2.52,8.35,2.41,8.86-6,11.7-4.61,1.54-6.33,3.93-5.5,8.61,2.78,15.79,2.42,31.73,0,47.68-.88,5.94.56,9.43,7.17,9.72,4.91.22,6.51,3.09,5.55,7.9-4,19.88-13.05,37.77-23.28,55.17-2.78,4.73-6.74,3.3-10.06,1-4.84-3.31-7.85-2.39-11.4,2.62-7.9,11.17-17.83,20.53-28.55,29.1-8,6.42-7.91,6.6-3.08,15.48A6.86,6.86,0,0,1,273.38,316.67Z"/><path class="cls-2" d="M270.84,192.11a31.88,31.88,0,1,1,22.31,10.33A30.84,30.84,0,0,1,270.84,192.11Zm-3.62-22.8a27.44,27.44,0,1,0,8.74-18.8A26.17,26.17,0,0,0,267.22,169.31Z"/><path class="cls-3" d="M87.24,276.35l8.28-14.24,4.35,2.54-1,1.74a3.63,3.63,0,0,0-.39,2.84,3.67,3.67,0,0,0,1.75,2.29l40.49,23.56a3.73,3.73,0,0,0,5.13-1.36l1-1.73,4.27,2.48-5.38,9.25-48-27.93a3.74,3.74,0,0,0-5.13,1.35l-1,1.74Z"/><path class="cls-4" d="M93.61,72.39a23.31,23.31,0,0,1,11.86-3.23A102.21,102.21,0,0,1,121,70.26q12.83,1.92,20,.56L135.29,61A3.38,3.38,0,0,0,133,59.3a3.78,3.78,0,0,0-2.79.38l-3.09,1.78-2.46-4.28L135.37,51l13,22.61-2.81,1a30.29,30.29,0,0,1-9.33,1.67,60.12,60.12,0,0,1-9-.21c-2.45-.28-5.64-.73-9.59-1.35q-14.26-2.25-21.57,2a12.58,12.58,0,0,0-4.62,17.12A11.77,11.77,0,0,0,95,97.64c2.08,1.54,4.5,1.53,7.25-.06l2.46,4.29L94,108.07l-2.46-4.28,2.06-1.19a17,17,0,0,1-6.44-6.43A16.69,16.69,0,0,1,85.49,83,16.87,16.87,0,0,1,93.61,72.39Z"/></g></g></svg>